<mxfile host="app.diagrams.net" agent="Mozilla/5.0 (Windows NT 10.0; Win64; x64) AppleWebKit/537.36 (KHTML, like Gecko) Chrome/130.0.0.0 Safari/537.36" version="24.8.3" pages="5">
  <diagram name="S3" id="NUI4hM4tszNIx6ZBqlHi">
    <mxGraphModel dx="2261" dy="772" grid="1" gridSize="10" guides="1" tooltips="1" connect="1" arrows="1" fold="1" page="1" pageScale="1" pageWidth="827" pageHeight="1169" math="0" shadow="0">
      <root>
        <mxCell id="0" />
        <mxCell id="1" parent="0" />
        <mxCell id="0AG7UvMi_JRd-4SCO787-3" style="edgeStyle=orthogonalEdgeStyle;rounded=0;orthogonalLoop=1;jettySize=auto;html=1;entryX=0;entryY=0.5;entryDx=0;entryDy=0;" parent="1" source="elhGvLy1oSMoWto0bze5-1" target="0AG7UvMi_JRd-4SCO787-2" edge="1">
          <mxGeometry relative="1" as="geometry" />
        </mxCell>
        <mxCell id="elhGvLy1oSMoWto0bze5-1" value="standard" style="rounded=0;whiteSpace=wrap;html=1;" parent="1" vertex="1">
          <mxGeometry x="150" y="190" width="120" height="60" as="geometry" />
        </mxCell>
        <mxCell id="elhGvLy1oSMoWto0bze5-13" style="edgeStyle=orthogonalEdgeStyle;rounded=0;orthogonalLoop=1;jettySize=auto;html=1;" parent="1" source="elhGvLy1oSMoWto0bze5-2" target="elhGvLy1oSMoWto0bze5-12" edge="1">
          <mxGeometry relative="1" as="geometry" />
        </mxCell>
        <mxCell id="elhGvLy1oSMoWto0bze5-2" value="Intelligent Tiering" style="rounded=0;whiteSpace=wrap;html=1;" parent="1" vertex="1">
          <mxGeometry x="150" y="280" width="120" height="60" as="geometry" />
        </mxCell>
        <mxCell id="elhGvLy1oSMoWto0bze5-11" style="edgeStyle=orthogonalEdgeStyle;rounded=0;orthogonalLoop=1;jettySize=auto;html=1;" parent="1" source="elhGvLy1oSMoWto0bze5-4" target="elhGvLy1oSMoWto0bze5-10" edge="1">
          <mxGeometry relative="1" as="geometry" />
        </mxCell>
        <mxCell id="elhGvLy1oSMoWto0bze5-4" value="standard-Infreq Access" style="rounded=0;whiteSpace=wrap;html=1;" parent="1" vertex="1">
          <mxGeometry x="150" y="360" width="120" height="60" as="geometry" />
        </mxCell>
        <mxCell id="elhGvLy1oSMoWto0bze5-7" style="edgeStyle=orthogonalEdgeStyle;rounded=0;orthogonalLoop=1;jettySize=auto;html=1;" parent="1" source="elhGvLy1oSMoWto0bze5-5" target="elhGvLy1oSMoWto0bze5-6" edge="1">
          <mxGeometry relative="1" as="geometry" />
        </mxCell>
        <mxCell id="elhGvLy1oSMoWto0bze5-5" value="One Zone-Infreq Access" style="rounded=0;whiteSpace=wrap;html=1;" parent="1" vertex="1">
          <mxGeometry x="150" y="450" width="120" height="60" as="geometry" />
        </mxCell>
        <mxCell id="elhGvLy1oSMoWto0bze5-6" value="One AZ only" style="rounded=0;whiteSpace=wrap;html=1;" parent="1" vertex="1">
          <mxGeometry x="320" y="450" width="120" height="60" as="geometry" />
        </mxCell>
        <mxCell id="elhGvLy1oSMoWto0bze5-10" value="Multiple AZ" style="rounded=0;whiteSpace=wrap;html=1;" parent="1" vertex="1">
          <mxGeometry x="320" y="360" width="120" height="60" as="geometry" />
        </mxCell>
        <mxCell id="elhGvLy1oSMoWto0bze5-12" value="freq. access tier&lt;div&gt;lower-cost tier&lt;/div&gt;" style="rounded=0;whiteSpace=wrap;html=1;" parent="1" vertex="1">
          <mxGeometry x="320" y="280" width="120" height="60" as="geometry" />
        </mxCell>
        <mxCell id="elhGvLy1oSMoWto0bze5-16" style="edgeStyle=orthogonalEdgeStyle;rounded=0;orthogonalLoop=1;jettySize=auto;html=1;" parent="1" source="elhGvLy1oSMoWto0bze5-14" target="elhGvLy1oSMoWto0bze5-15" edge="1">
          <mxGeometry relative="1" as="geometry" />
        </mxCell>
        <mxCell id="elhGvLy1oSMoWto0bze5-14" value="Reduced Redundancy Storage&lt;div&gt;RRS&lt;/div&gt;" style="rounded=0;whiteSpace=wrap;html=1;fillColor=#f8cecc;strokeColor=#b85450;" parent="1" vertex="1">
          <mxGeometry x="150" y="534" width="120" height="60" as="geometry" />
        </mxCell>
        <mxCell id="elhGvLy1oSMoWto0bze5-15" value="Not recommended" style="rounded=0;whiteSpace=wrap;html=1;" parent="1" vertex="1">
          <mxGeometry x="320" y="534" width="120" height="60" as="geometry" />
        </mxCell>
        <mxCell id="elhGvLy1oSMoWto0bze5-19" style="edgeStyle=orthogonalEdgeStyle;rounded=0;orthogonalLoop=1;jettySize=auto;html=1;" parent="1" source="elhGvLy1oSMoWto0bze5-17" target="elhGvLy1oSMoWto0bze5-18" edge="1">
          <mxGeometry relative="1" as="geometry" />
        </mxCell>
        <mxCell id="elhGvLy1oSMoWto0bze5-17" value="Glacier&amp;nbsp;&lt;div&gt;Instant Retrieval&lt;/div&gt;" style="rounded=0;whiteSpace=wrap;html=1;" parent="1" vertex="1">
          <mxGeometry x="150" y="619" width="120" height="60" as="geometry" />
        </mxCell>
        <mxCell id="elhGvLy1oSMoWto0bze5-18" value="min 90 days" style="rounded=0;whiteSpace=wrap;html=1;" parent="1" vertex="1">
          <mxGeometry x="320" y="619" width="120" height="60" as="geometry" />
        </mxCell>
        <mxCell id="elhGvLy1oSMoWto0bze5-20" value="Glacier&amp;nbsp;&lt;div&gt;Flexible Retrieval&lt;/div&gt;" style="rounded=0;whiteSpace=wrap;html=1;" parent="1" vertex="1">
          <mxGeometry x="150" y="695" width="120" height="60" as="geometry" />
        </mxCell>
        <mxCell id="elhGvLy1oSMoWto0bze5-21" value="Glacier&amp;nbsp;&lt;div&gt;Deep Archive&lt;/div&gt;" style="rounded=0;whiteSpace=wrap;html=1;" parent="1" vertex="1">
          <mxGeometry x="150" y="775" width="120" height="60" as="geometry" />
        </mxCell>
        <mxCell id="elhGvLy1oSMoWto0bze5-22" style="edgeStyle=orthogonalEdgeStyle;rounded=0;orthogonalLoop=1;jettySize=auto;html=1;" parent="1" target="elhGvLy1oSMoWto0bze5-23" edge="1">
          <mxGeometry relative="1" as="geometry">
            <mxPoint x="270" y="805" as="sourcePoint" />
          </mxGeometry>
        </mxCell>
        <mxCell id="elhGvLy1oSMoWto0bze5-23" value="min 180 days" style="rounded=0;whiteSpace=wrap;html=1;" parent="1" vertex="1">
          <mxGeometry x="320" y="775" width="120" height="60" as="geometry" />
        </mxCell>
        <mxCell id="elhGvLy1oSMoWto0bze5-26" style="edgeStyle=orthogonalEdgeStyle;rounded=0;orthogonalLoop=1;jettySize=auto;html=1;" parent="1" target="elhGvLy1oSMoWto0bze5-27" edge="1">
          <mxGeometry relative="1" as="geometry">
            <mxPoint x="270" y="725" as="sourcePoint" />
          </mxGeometry>
        </mxCell>
        <mxCell id="elhGvLy1oSMoWto0bze5-27" value="min 90 days" style="rounded=0;whiteSpace=wrap;html=1;" parent="1" vertex="1">
          <mxGeometry x="320" y="695" width="120" height="60" as="geometry" />
        </mxCell>
        <mxCell id="elhGvLy1oSMoWto0bze5-28" value="Lowest-cost data archiving" style="rounded=0;whiteSpace=wrap;html=1;" parent="1" vertex="1">
          <mxGeometry x="630" y="775" width="120" height="60" as="geometry" />
        </mxCell>
        <mxCell id="elhGvLy1oSMoWto0bze5-39" value="Express One Zone" style="rounded=0;whiteSpace=wrap;html=1;" parent="1" vertex="1">
          <mxGeometry x="150" y="100" width="120" height="60" as="geometry" />
        </mxCell>
        <mxCell id="elhGvLy1oSMoWto0bze5-41" value="Retrieval Charge" style="whiteSpace=wrap;html=1;aspect=fixed;fillColor=#fff2cc;strokeColor=#d6b656;" parent="1" vertex="1">
          <mxGeometry x="90" y="100" width="60" height="60" as="geometry" />
        </mxCell>
        <mxCell id="elhGvLy1oSMoWto0bze5-42" value="Retrieval Charge" style="whiteSpace=wrap;html=1;aspect=fixed;fillColor=#fff2cc;strokeColor=#d6b656;" parent="1" vertex="1">
          <mxGeometry x="90" y="360" width="60" height="60" as="geometry" />
        </mxCell>
        <mxCell id="elhGvLy1oSMoWto0bze5-44" value="Retrieval Charge" style="whiteSpace=wrap;html=1;aspect=fixed;fillColor=#fff2cc;strokeColor=#d6b656;" parent="1" vertex="1">
          <mxGeometry x="90" y="450" width="60" height="60" as="geometry" />
        </mxCell>
        <mxCell id="elhGvLy1oSMoWto0bze5-45" value="Retrieval Charge" style="whiteSpace=wrap;html=1;aspect=fixed;fillColor=#fff2cc;strokeColor=#d6b656;" parent="1" vertex="1">
          <mxGeometry x="90" y="534" width="60" height="60" as="geometry" />
        </mxCell>
        <mxCell id="elhGvLy1oSMoWto0bze5-46" value="Retrieval Charge" style="whiteSpace=wrap;html=1;fillColor=#fff2cc;strokeColor=#d6b656;" parent="1" vertex="1">
          <mxGeometry x="-10" y="619" width="160" height="60" as="geometry" />
        </mxCell>
        <mxCell id="elhGvLy1oSMoWto0bze5-47" value="Retrieval Charge" style="whiteSpace=wrap;html=1;aspect=fixed;fillColor=#fff2cc;strokeColor=#d6b656;" parent="1" vertex="1">
          <mxGeometry x="90" y="695" width="60" height="60" as="geometry" />
        </mxCell>
        <mxCell id="elhGvLy1oSMoWto0bze5-48" value="Retrieval Charge" style="whiteSpace=wrap;html=1;aspect=fixed;fillColor=#fff2cc;strokeColor=#d6b656;" parent="1" vertex="1">
          <mxGeometry x="90" y="775" width="60" height="60" as="geometry" />
        </mxCell>
        <mxCell id="0AG7UvMi_JRd-4SCO787-1" value="12-48 hr retrival" style="rounded=0;whiteSpace=wrap;html=1;" parent="1" vertex="1">
          <mxGeometry x="480" y="775" width="120" height="60" as="geometry" />
        </mxCell>
        <mxCell id="0AG7UvMi_JRd-4SCO787-2" value="3 AZ" style="rounded=0;whiteSpace=wrap;html=1;" parent="1" vertex="1">
          <mxGeometry x="320" y="190" width="120" height="60" as="geometry" />
        </mxCell>
        <mxCell id="0AG7UvMi_JRd-4SCO787-5" value="min 30 days" style="rounded=0;whiteSpace=wrap;html=1;" parent="1" vertex="1">
          <mxGeometry x="480" y="360" width="120" height="60" as="geometry" />
        </mxCell>
        <mxCell id="0AG7UvMi_JRd-4SCO787-9" style="edgeStyle=orthogonalEdgeStyle;rounded=0;orthogonalLoop=1;jettySize=auto;html=1;entryX=0;entryY=0.5;entryDx=0;entryDy=0;" parent="1" source="0AG7UvMi_JRd-4SCO787-6" target="0AG7UvMi_JRd-4SCO787-7" edge="1">
          <mxGeometry relative="1" as="geometry" />
        </mxCell>
        <mxCell id="0AG7UvMi_JRd-4SCO787-6" value="EBS" style="rounded=0;whiteSpace=wrap;html=1;" parent="1" vertex="1">
          <mxGeometry x="760" y="270" width="120" height="60" as="geometry" />
        </mxCell>
        <mxCell id="0AG7UvMi_JRd-4SCO787-7" value="ec2" style="rounded=0;whiteSpace=wrap;html=1;" parent="1" vertex="1">
          <mxGeometry x="1000" y="270" width="120" height="60" as="geometry" />
        </mxCell>
        <mxCell id="0AG7UvMi_JRd-4SCO787-12" style="edgeStyle=orthogonalEdgeStyle;rounded=0;orthogonalLoop=1;jettySize=auto;html=1;entryX=0;entryY=0.5;entryDx=0;entryDy=0;" parent="1" source="0AG7UvMi_JRd-4SCO787-10" target="0AG7UvMi_JRd-4SCO787-11" edge="1">
          <mxGeometry relative="1" as="geometry" />
        </mxCell>
        <mxCell id="0AG7UvMi_JRd-4SCO787-10" value="EFS" style="rounded=0;whiteSpace=wrap;html=1;" parent="1" vertex="1">
          <mxGeometry x="760" y="350" width="120" height="60" as="geometry" />
        </mxCell>
        <mxCell id="0AG7UvMi_JRd-4SCO787-11" value="NAS v4" style="rounded=0;whiteSpace=wrap;html=1;" parent="1" vertex="1">
          <mxGeometry x="1000" y="350" width="120" height="60" as="geometry" />
        </mxCell>
        <mxCell id="0AG7UvMi_JRd-4SCO787-13" value="milliseconds retrival" style="rounded=0;whiteSpace=wrap;html=1;" parent="1" vertex="1">
          <mxGeometry x="480" y="619" width="120" height="60" as="geometry" />
        </mxCell>
        <mxCell id="0AG7UvMi_JRd-4SCO787-14" value="12 hr retrival" style="rounded=0;whiteSpace=wrap;html=1;" parent="1" vertex="1">
          <mxGeometry x="480" y="695" width="120" height="60" as="geometry" />
        </mxCell>
      </root>
    </mxGraphModel>
  </diagram>
  <diagram id="IHwlSBnPRZBjwduSqOJk" name="vpc">
    <mxGraphModel dx="2261" dy="1941" grid="1" gridSize="10" guides="1" tooltips="1" connect="1" arrows="1" fold="1" page="1" pageScale="1" pageWidth="827" pageHeight="1169" math="0" shadow="0">
      <root>
        <mxCell id="0" />
        <mxCell id="1" parent="0" />
        <mxCell id="mi6nLPjGyi6vEEibymme-20" style="edgeStyle=orthogonalEdgeStyle;rounded=0;orthogonalLoop=1;jettySize=auto;html=1;" parent="1" source="mi6nLPjGyi6vEEibymme-1" target="mi6nLPjGyi6vEEibymme-19" edge="1">
          <mxGeometry relative="1" as="geometry" />
        </mxCell>
        <mxCell id="mi6nLPjGyi6vEEibymme-22" style="edgeStyle=orthogonalEdgeStyle;rounded=0;orthogonalLoop=1;jettySize=auto;html=1;" parent="1" source="mi6nLPjGyi6vEEibymme-1" target="mi6nLPjGyi6vEEibymme-21" edge="1">
          <mxGeometry relative="1" as="geometry" />
        </mxCell>
        <mxCell id="mi6nLPjGyi6vEEibymme-1" value="&lt;a style=&quot;background-color: rgb(255, 255, 255); text-decoration-line: none; font-family: &amp;quot;Amazon Ember&amp;quot;, Helvetica, Arial, sans-serif; font-size: 16px; text-align: start;&quot; href=&quot;https://docs.aws.amazon.com/whitepapers/latest/aws-vpc-connectivity-options/vpc-peering.html&quot;&gt;VPC peering&lt;/a&gt;" style="rounded=0;whiteSpace=wrap;html=1;" parent="1" vertex="1">
          <mxGeometry x="240" y="160" width="120" height="60" as="geometry" />
        </mxCell>
        <mxCell id="mi6nLPjGyi6vEEibymme-18" style="edgeStyle=orthogonalEdgeStyle;rounded=0;orthogonalLoop=1;jettySize=auto;html=1;" parent="1" source="mi6nLPjGyi6vEEibymme-2" target="mi6nLPjGyi6vEEibymme-17" edge="1">
          <mxGeometry relative="1" as="geometry" />
        </mxCell>
        <mxCell id="mi6nLPjGyi6vEEibymme-2" value="&lt;a style=&quot;background-color: rgb(255, 255, 255); text-decoration-line: none; font-family: &amp;quot;Amazon Ember&amp;quot;, Helvetica, Arial, sans-serif; font-size: 16px; text-align: start;&quot; href=&quot;https://docs.aws.amazon.com/whitepapers/latest/aws-vpc-connectivity-options/aws-transit-gateway.html&quot;&gt;AWS Transit Gateway&lt;/a&gt;" style="rounded=0;whiteSpace=wrap;html=1;" parent="1" vertex="1">
          <mxGeometry x="240" y="280" width="120" height="60" as="geometry" />
        </mxCell>
        <mxCell id="mi6nLPjGyi6vEEibymme-16" style="edgeStyle=orthogonalEdgeStyle;rounded=0;orthogonalLoop=1;jettySize=auto;html=1;exitX=1;exitY=0.5;exitDx=0;exitDy=0;" parent="1" source="rk3Y8UDsIevRa89_hVk4-2" target="mi6nLPjGyi6vEEibymme-15" edge="1">
          <mxGeometry relative="1" as="geometry" />
        </mxCell>
        <mxCell id="mi6nLPjGyi6vEEibymme-23" style="edgeStyle=orthogonalEdgeStyle;rounded=0;orthogonalLoop=1;jettySize=auto;html=1;" parent="1" source="mi6nLPjGyi6vEEibymme-3" target="mi6nLPjGyi6vEEibymme-24" edge="1">
          <mxGeometry relative="1" as="geometry">
            <mxPoint x="170" y="430" as="targetPoint" />
          </mxGeometry>
        </mxCell>
        <mxCell id="rk3Y8UDsIevRa89_hVk4-3" style="edgeStyle=orthogonalEdgeStyle;rounded=0;orthogonalLoop=1;jettySize=auto;html=1;" parent="1" source="mi6nLPjGyi6vEEibymme-3" target="rk3Y8UDsIevRa89_hVk4-2" edge="1">
          <mxGeometry relative="1" as="geometry" />
        </mxCell>
        <mxCell id="mi6nLPjGyi6vEEibymme-3" value="&lt;a style=&quot;background-color: rgb(255, 255, 255); text-decoration-line: none; font-family: &amp;quot;Amazon Ember&amp;quot;, Helvetica, Arial, sans-serif; font-size: 16px; text-align: start;&quot; href=&quot;https://docs.aws.amazon.com/whitepapers/latest/aws-vpc-connectivity-options/aws-privatelink.html&quot;&gt;AWS PrivateLink&lt;/a&gt;" style="rounded=0;whiteSpace=wrap;html=1;" parent="1" vertex="1">
          <mxGeometry x="240" y="400" width="120" height="60" as="geometry" />
        </mxCell>
        <mxCell id="mi6nLPjGyi6vEEibymme-10" style="edgeStyle=orthogonalEdgeStyle;rounded=0;orthogonalLoop=1;jettySize=auto;html=1;entryX=0;entryY=0.25;entryDx=0;entryDy=0;" parent="1" source="mi6nLPjGyi6vEEibymme-4" target="mi6nLPjGyi6vEEibymme-9" edge="1">
          <mxGeometry relative="1" as="geometry">
            <Array as="points">
              <mxPoint x="440" y="555" />
              <mxPoint x="440" y="585" />
            </Array>
          </mxGeometry>
        </mxCell>
        <mxCell id="mi6nLPjGyi6vEEibymme-13" style="edgeStyle=orthogonalEdgeStyle;rounded=0;orthogonalLoop=1;jettySize=auto;html=1;entryX=0.5;entryY=0;entryDx=0;entryDy=0;" parent="1" source="mi6nLPjGyi6vEEibymme-4" target="mi6nLPjGyi6vEEibymme-12" edge="1">
          <mxGeometry relative="1" as="geometry" />
        </mxCell>
        <mxCell id="mi6nLPjGyi6vEEibymme-4" value="&lt;a style=&quot;background-color: rgb(255, 255, 255); text-decoration-line: none; font-family: &amp;quot;Amazon Ember&amp;quot;, Helvetica, Arial, sans-serif; font-size: 16px; text-align: start;&quot; href=&quot;https://docs.aws.amazon.com/whitepapers/latest/aws-vpc-connectivity-options/software-vpn-1.html&quot;&gt;Software VPN&lt;/a&gt;" style="rounded=0;whiteSpace=wrap;html=1;" parent="1" vertex="1">
          <mxGeometry x="240" y="525" width="120" height="60" as="geometry" />
        </mxCell>
        <mxCell id="mi6nLPjGyi6vEEibymme-7" style="edgeStyle=orthogonalEdgeStyle;rounded=0;orthogonalLoop=1;jettySize=auto;html=1;" parent="1" source="mi6nLPjGyi6vEEibymme-5" target="mi6nLPjGyi6vEEibymme-8" edge="1">
          <mxGeometry relative="1" as="geometry">
            <mxPoint x="490" y="680" as="targetPoint" />
            <Array as="points">
              <mxPoint x="440" y="675" />
              <mxPoint x="440" y="720" />
            </Array>
          </mxGeometry>
        </mxCell>
        <mxCell id="mi6nLPjGyi6vEEibymme-14" style="edgeStyle=orthogonalEdgeStyle;rounded=0;orthogonalLoop=1;jettySize=auto;html=1;entryX=0.5;entryY=1;entryDx=0;entryDy=0;" parent="1" source="mi6nLPjGyi6vEEibymme-5" target="mi6nLPjGyi6vEEibymme-12" edge="1">
          <mxGeometry relative="1" as="geometry" />
        </mxCell>
        <mxCell id="mi6nLPjGyi6vEEibymme-5" value="&lt;a style=&quot;background-color: rgb(255, 255, 255); text-decoration-line: none; font-family: &amp;quot;Amazon Ember&amp;quot;, Helvetica, Arial, sans-serif; font-size: 16px; text-align: start;&quot; href=&quot;https://docs.aws.amazon.com/whitepapers/latest/aws-vpc-connectivity-options/software-vpn-to-aws-site-to-site-vpn.html&quot;&gt;Software VPN-to-AWS Site-to-Site VPN&lt;/a&gt;" style="rounded=0;whiteSpace=wrap;html=1;fillColor=#fff2cc;strokeColor=#d6b656;" parent="1" vertex="1">
          <mxGeometry x="240" y="645" width="120" height="60" as="geometry" />
        </mxCell>
        <mxCell id="mi6nLPjGyi6vEEibymme-8" value="&lt;span style=&quot;color: rgb(22, 25, 31); font-family: &amp;quot;Amazon Ember&amp;quot;, Helvetica, Arial, sans-serif; font-size: 16px; text-align: start; background-color: rgb(255, 255, 255);&quot;&gt;IPsec VPN&amp;nbsp;&lt;/span&gt;" style="rounded=0;whiteSpace=wrap;html=1;" parent="1" vertex="1">
          <mxGeometry x="510" y="690" width="120" height="60" as="geometry" />
        </mxCell>
        <mxCell id="mi6nLPjGyi6vEEibymme-9" value="&lt;span style=&quot;color: rgb(22, 25, 31); font-family: &amp;quot;Amazon Ember&amp;quot;, Helvetica, Arial, sans-serif; font-size: 16px; text-align: start; background-color: rgb(255, 255, 255);&quot;&gt;network bottleneck&lt;/span&gt;" style="rounded=0;whiteSpace=wrap;html=1;" parent="1" vertex="1">
          <mxGeometry x="510" y="570" width="120" height="60" as="geometry" />
        </mxCell>
        <mxCell id="mi6nLPjGyi6vEEibymme-11" style="edgeStyle=orthogonalEdgeStyle;rounded=0;orthogonalLoop=1;jettySize=auto;html=1;entryX=0;entryY=0.75;entryDx=0;entryDy=0;" parent="1" source="mi6nLPjGyi6vEEibymme-5" target="mi6nLPjGyi6vEEibymme-9" edge="1">
          <mxGeometry relative="1" as="geometry">
            <Array as="points">
              <mxPoint x="440" y="675" />
              <mxPoint x="440" y="615" />
            </Array>
          </mxGeometry>
        </mxCell>
        <mxCell id="mi6nLPjGyi6vEEibymme-12" value="&lt;div style=&quot;text-align: start;&quot;&gt;&lt;span style=&quot;background-color: initial; font-size: 16px;&quot;&gt;&lt;font face=&quot;Amazon Ember, Helvetica, Arial, sans-serif&quot; color=&quot;#16191f&quot;&gt;High availability&lt;/font&gt;&lt;/span&gt;&lt;/div&gt;" style="rounded=0;whiteSpace=wrap;html=1;" parent="1" vertex="1">
          <mxGeometry x="50" y="585" width="120" height="60" as="geometry" />
        </mxCell>
        <mxCell id="mi6nLPjGyi6vEEibymme-15" value="&lt;span style=&quot;color: rgb(51, 51, 51); font-family: AmazonEmber, &amp;quot;Helvetica Neue&amp;quot;, Helvetica, Arial, sans-serif; font-size: 14px; text-align: start;&quot;&gt;Across AWS Regions using&amp;nbsp;&lt;/span&gt;&lt;div&gt;&lt;span style=&quot;color: rgb(51, 51, 51); font-family: AmazonEmber, &amp;quot;Helvetica Neue&amp;quot;, Helvetica, Arial, sans-serif; font-size: 14px; text-align: start;&quot;&gt;Inter-Region VPC Peering&lt;/span&gt;&lt;/div&gt;" style="rounded=0;whiteSpace=wrap;html=1;" parent="1" vertex="1">
          <mxGeometry x="650" y="400" width="240" height="60" as="geometry" />
        </mxCell>
        <mxCell id="mi6nLPjGyi6vEEibymme-17" value="&lt;span style=&quot;color: rgb(22, 25, 31); font-family: &amp;quot;Amazon Ember&amp;quot;, Helvetica, Arial, sans-serif; font-size: 16px; text-align: start; background-color: rgb(255, 255, 255);&quot;&gt;&amp;nbsp;static routes&lt;/span&gt;" style="rounded=0;whiteSpace=wrap;html=1;" parent="1" vertex="1">
          <mxGeometry x="440" y="280" width="120" height="60" as="geometry" />
        </mxCell>
        <mxCell id="mi6nLPjGyi6vEEibymme-19" value="&lt;span style=&quot;color: rgb(22, 25, 31); font-family: &amp;quot;Amazon Ember&amp;quot;, Helvetica, Arial, sans-serif; font-size: 16px; text-align: start; background-color: rgb(255, 255, 255);&quot;&gt;No Transitive peering relationships&lt;/span&gt;" style="rounded=0;whiteSpace=wrap;html=1;" parent="1" vertex="1">
          <mxGeometry x="440" y="160" width="120" height="60" as="geometry" />
        </mxCell>
        <mxCell id="mi6nLPjGyi6vEEibymme-21" value="&lt;span style=&quot;color: rgb(22, 25, 31); font-family: &amp;quot;Amazon Ember&amp;quot;, Helvetica, Arial, sans-serif; font-size: 16px; text-align: start; background-color: rgb(255, 255, 255);&quot;&gt;Difficult to manage at scale&lt;/span&gt;" style="rounded=0;whiteSpace=wrap;html=1;" parent="1" vertex="1">
          <mxGeometry x="50" y="160" width="120" height="60" as="geometry" />
        </mxCell>
        <mxCell id="mi6nLPjGyi6vEEibymme-24" value="&lt;span style=&quot;color: rgb(22, 25, 31); font-family: &amp;quot;Amazon Ember&amp;quot;, Helvetica, Arial, sans-serif; font-size: 16px; text-align: start; background-color: rgb(255, 255, 255);&quot;&gt;Interface endpoints&lt;/span&gt;" style="rounded=0;whiteSpace=wrap;html=1;" parent="1" vertex="1">
          <mxGeometry x="50" y="400" width="120" height="60" as="geometry" />
        </mxCell>
        <mxCell id="rk3Y8UDsIevRa89_hVk4-2" value="Same Region only" style="rounded=0;whiteSpace=wrap;html=1;" parent="1" vertex="1">
          <mxGeometry x="440" y="400" width="120" height="60" as="geometry" />
        </mxCell>
        <mxCell id="7vYZw_Ll1ZlMQLN4fyFe-16" style="edgeStyle=orthogonalEdgeStyle;rounded=0;orthogonalLoop=1;jettySize=auto;html=1;entryX=0.5;entryY=1;entryDx=0;entryDy=0;exitX=1;exitY=0.5;exitDx=0;exitDy=0;" parent="1" source="7vYZw_Ll1ZlMQLN4fyFe-1" target="7vYZw_Ll1ZlMQLN4fyFe-9" edge="1">
          <mxGeometry relative="1" as="geometry" />
        </mxCell>
        <mxCell id="0bDY6pHK7f60NX-sRXFF-51" value="from Private Subnet to NAT" style="edgeLabel;html=1;align=center;verticalAlign=middle;resizable=0;points=[];" parent="7vYZw_Ll1ZlMQLN4fyFe-16" vertex="1" connectable="0">
          <mxGeometry x="-0.1285" y="-1" relative="1" as="geometry">
            <mxPoint as="offset" />
          </mxGeometry>
        </mxCell>
        <mxCell id="0bDY6pHK7f60NX-sRXFF-30" style="rounded=0;orthogonalLoop=1;jettySize=auto;html=1;entryX=0;entryY=0.75;entryDx=0;entryDy=0;" parent="1" source="7vYZw_Ll1ZlMQLN4fyFe-1" target="7vYZw_Ll1ZlMQLN4fyFe-8" edge="1">
          <mxGeometry relative="1" as="geometry" />
        </mxCell>
        <mxCell id="0bDY6pHK7f60NX-sRXFF-31" style="edgeStyle=orthogonalEdgeStyle;rounded=0;orthogonalLoop=1;jettySize=auto;html=1;entryX=0.5;entryY=1;entryDx=0;entryDy=0;endArrow=classic;endFill=1;" parent="1" source="7vYZw_Ll1ZlMQLN4fyFe-1" target="0bDY6pHK7f60NX-sRXFF-4" edge="1">
          <mxGeometry relative="1" as="geometry" />
        </mxCell>
        <mxCell id="0bDY6pHK7f60NX-sRXFF-33" value="*" style="edgeLabel;html=1;align=center;verticalAlign=middle;resizable=0;points=[];" parent="0bDY6pHK7f60NX-sRXFF-31" vertex="1" connectable="0">
          <mxGeometry x="0.8007" y="4" relative="1" as="geometry">
            <mxPoint as="offset" />
          </mxGeometry>
        </mxCell>
        <mxCell id="0bDY6pHK7f60NX-sRXFF-34" value="1" style="edgeLabel;html=1;align=center;verticalAlign=middle;resizable=0;points=[];" parent="0bDY6pHK7f60NX-sRXFF-31" vertex="1" connectable="0">
          <mxGeometry x="-0.8303" y="2" relative="1" as="geometry">
            <mxPoint as="offset" />
          </mxGeometry>
        </mxCell>
        <mxCell id="7vYZw_Ll1ZlMQLN4fyFe-1" value="Routing Table" style="rounded=0;whiteSpace=wrap;html=1;" parent="1" vertex="1">
          <mxGeometry x="1321" y="290" width="120" height="60" as="geometry" />
        </mxCell>
        <mxCell id="7vYZw_Ll1ZlMQLN4fyFe-18" style="edgeStyle=orthogonalEdgeStyle;rounded=0;orthogonalLoop=1;jettySize=auto;html=1;fillColor=#dae8fc;strokeColor=#6c8ebf;" parent="1" source="7vYZw_Ll1ZlMQLN4fyFe-2" target="7vYZw_Ll1ZlMQLN4fyFe-3" edge="1">
          <mxGeometry relative="1" as="geometry">
            <Array as="points">
              <mxPoint x="1500" y="625" />
              <mxPoint x="1500" y="625" />
            </Array>
          </mxGeometry>
        </mxCell>
        <mxCell id="0bDY6pHK7f60NX-sRXFF-58" value="&lt;span style=&quot;font-size: 12px; text-wrap-mode: wrap; background-color: rgb(251, 251, 251);&quot;&gt;Second layer of&lt;/span&gt;&lt;div style=&quot;font-size: 12px; text-wrap-mode: wrap; background-color: rgb(251, 251, 251);&quot;&gt;defense&lt;/div&gt;" style="edgeLabel;html=1;align=center;verticalAlign=middle;resizable=0;points=[];" parent="7vYZw_Ll1ZlMQLN4fyFe-18" vertex="1" connectable="0">
          <mxGeometry x="0.0667" y="5" relative="1" as="geometry">
            <mxPoint x="-5" y="-2" as="offset" />
          </mxGeometry>
        </mxCell>
        <mxCell id="7vYZw_Ll1ZlMQLN4fyFe-2" value="Security Group" style="rounded=0;whiteSpace=wrap;html=1;" parent="1" vertex="1">
          <mxGeometry x="1440" y="475" width="120" height="60" as="geometry" />
        </mxCell>
        <mxCell id="7vYZw_Ll1ZlMQLN4fyFe-3" value="Network ACL" style="rounded=0;whiteSpace=wrap;html=1;" parent="1" vertex="1">
          <mxGeometry x="1440" y="645" width="120" height="60" as="geometry" />
        </mxCell>
        <mxCell id="7vYZw_Ll1ZlMQLN4fyFe-4" value="Stateful" style="rounded=0;whiteSpace=wrap;html=1;fillColor=#d5e8d4;strokeColor=#82b366;" parent="1" vertex="1">
          <mxGeometry x="1560" y="475" width="70" height="60" as="geometry" />
        </mxCell>
        <mxCell id="7vYZw_Ll1ZlMQLN4fyFe-5" value="50 inbound" style="rounded=0;whiteSpace=wrap;html=1;" parent="1" vertex="1">
          <mxGeometry x="1360" y="475" width="80" height="30" as="geometry" />
        </mxCell>
        <mxCell id="7vYZw_Ll1ZlMQLN4fyFe-6" value="50 outbound" style="rounded=0;whiteSpace=wrap;html=1;" parent="1" vertex="1">
          <mxGeometry x="1360" y="505" width="80" height="30" as="geometry" />
        </mxCell>
        <mxCell id="0bDY6pHK7f60NX-sRXFF-24" style="edgeStyle=orthogonalEdgeStyle;rounded=0;orthogonalLoop=1;jettySize=auto;html=1;entryX=1;entryY=0.5;entryDx=0;entryDy=0;exitX=0;exitY=0.5;exitDx=0;exitDy=0;" parent="1" source="7vYZw_Ll1ZlMQLN4fyFe-8" target="0bDY6pHK7f60NX-sRXFF-6" edge="1">
          <mxGeometry relative="1" as="geometry">
            <Array as="points">
              <mxPoint x="1700" y="120" />
            </Array>
          </mxGeometry>
        </mxCell>
        <mxCell id="0bDY6pHK7f60NX-sRXFF-25" value="Attach to&amp;nbsp;&lt;div&gt;1 to 1&lt;/div&gt;" style="edgeLabel;html=1;align=center;verticalAlign=middle;resizable=0;points=[];" parent="0bDY6pHK7f60NX-sRXFF-24" vertex="1" connectable="0">
          <mxGeometry x="-0.0588" y="-2" relative="1" as="geometry">
            <mxPoint x="-55" y="2" as="offset" />
          </mxGeometry>
        </mxCell>
        <mxCell id="7vYZw_Ll1ZlMQLN4fyFe-8" value="Internet Gateway&lt;div&gt;IGW&lt;/div&gt;" style="rounded=0;whiteSpace=wrap;html=1;" parent="1" vertex="1">
          <mxGeometry x="1660" y="100" width="120" height="60" as="geometry" />
        </mxCell>
        <mxCell id="0bDY6pHK7f60NX-sRXFF-18" style="edgeStyle=orthogonalEdgeStyle;rounded=0;orthogonalLoop=1;jettySize=auto;html=1;entryX=0.5;entryY=1;entryDx=0;entryDy=0;" parent="1" source="7vYZw_Ll1ZlMQLN4fyFe-9" target="7vYZw_Ll1ZlMQLN4fyFe-8" edge="1">
          <mxGeometry relative="1" as="geometry" />
        </mxCell>
        <mxCell id="0bDY6pHK7f60NX-sRXFF-42" style="edgeStyle=orthogonalEdgeStyle;rounded=0;orthogonalLoop=1;jettySize=auto;html=1;" parent="1" source="7vYZw_Ll1ZlMQLN4fyFe-9" target="0bDY6pHK7f60NX-sRXFF-41" edge="1">
          <mxGeometry relative="1" as="geometry" />
        </mxCell>
        <mxCell id="7vYZw_Ll1ZlMQLN4fyFe-9" value="NAT gateway" style="rounded=0;whiteSpace=wrap;html=1;" parent="1" vertex="1">
          <mxGeometry x="1660" y="220" width="120" height="60" as="geometry" />
        </mxCell>
        <mxCell id="7vYZw_Ll1ZlMQLN4fyFe-13" value="&lt;div&gt;from&lt;/div&gt;0.0.0.0/0&lt;div&gt;to IGW&lt;/div&gt;" style="text;html=1;align=center;verticalAlign=middle;whiteSpace=wrap;rounded=0;" parent="1" vertex="1">
          <mxGeometry x="1530" y="220" width="60" height="30" as="geometry" />
        </mxCell>
        <mxCell id="7vYZw_Ll1ZlMQLN4fyFe-21" value="Allows All outbound traffic" style="rounded=0;whiteSpace=wrap;html=1;" parent="1" vertex="1">
          <mxGeometry x="1749" y="475" width="120" height="60" as="geometry" />
        </mxCell>
        <mxCell id="7vYZw_Ll1ZlMQLN4fyFe-22" value="Allow rule only" style="rounded=0;whiteSpace=wrap;html=1;fillColor=#f8cecc;strokeColor=#b85450;" parent="1" vertex="1">
          <mxGeometry x="1630" y="475" width="120" height="60" as="geometry" />
        </mxCell>
        <mxCell id="7vYZw_Ll1ZlMQLN4fyFe-23" value="Allow rule and deny rule" style="rounded=0;whiteSpace=wrap;html=1;fillColor=#d5e8d4;strokeColor=#82b366;" parent="1" vertex="1">
          <mxGeometry x="1629" y="645" width="120" height="60" as="geometry" />
        </mxCell>
        <mxCell id="0bDY6pHK7f60NX-sRXFF-2" value="Main" style="rounded=0;whiteSpace=wrap;html=1;" parent="1" vertex="1">
          <mxGeometry x="1321" y="350" width="50" height="40" as="geometry" />
        </mxCell>
        <mxCell id="0bDY6pHK7f60NX-sRXFF-4" value="Subnet" style="rounded=0;whiteSpace=wrap;html=1;" parent="1" vertex="1">
          <mxGeometry x="1050" y="200" width="120" height="60" as="geometry" />
        </mxCell>
        <mxCell id="0bDY6pHK7f60NX-sRXFF-19" style="edgeStyle=orthogonalEdgeStyle;rounded=0;orthogonalLoop=1;jettySize=auto;html=1;entryX=0.5;entryY=0;entryDx=0;entryDy=0;" parent="1" source="0bDY6pHK7f60NX-sRXFF-6" target="0bDY6pHK7f60NX-sRXFF-4" edge="1">
          <mxGeometry relative="1" as="geometry" />
        </mxCell>
        <mxCell id="0bDY6pHK7f60NX-sRXFF-26" value="Max: 200" style="edgeLabel;html=1;align=center;verticalAlign=middle;resizable=0;points=[];" parent="0bDY6pHK7f60NX-sRXFF-19" vertex="1" connectable="0">
          <mxGeometry x="-0.0571" y="1" relative="1" as="geometry">
            <mxPoint x="-74" y="49" as="offset" />
          </mxGeometry>
        </mxCell>
        <mxCell id="0bDY6pHK7f60NX-sRXFF-52" value="1" style="edgeLabel;html=1;align=center;verticalAlign=middle;resizable=0;points=[];" parent="0bDY6pHK7f60NX-sRXFF-19" vertex="1" connectable="0">
          <mxGeometry x="-0.8007" y="2" relative="1" as="geometry">
            <mxPoint as="offset" />
          </mxGeometry>
        </mxCell>
        <mxCell id="0bDY6pHK7f60NX-sRXFF-28" style="edgeStyle=orthogonalEdgeStyle;rounded=0;orthogonalLoop=1;jettySize=auto;html=1;entryX=0.5;entryY=0;entryDx=0;entryDy=0;" parent="1" source="0bDY6pHK7f60NX-sRXFF-6" target="7vYZw_Ll1ZlMQLN4fyFe-1" edge="1">
          <mxGeometry relative="1" as="geometry" />
        </mxCell>
        <mxCell id="0bDY6pHK7f60NX-sRXFF-55" value="1" style="edgeLabel;html=1;align=center;verticalAlign=middle;resizable=0;points=[];" parent="0bDY6pHK7f60NX-sRXFF-28" vertex="1" connectable="0">
          <mxGeometry x="-0.7" y="2" relative="1" as="geometry">
            <mxPoint as="offset" />
          </mxGeometry>
        </mxCell>
        <mxCell id="0bDY6pHK7f60NX-sRXFF-56" value="Max 200" style="edgeLabel;html=1;align=center;verticalAlign=middle;resizable=0;points=[];" parent="0bDY6pHK7f60NX-sRXFF-28" vertex="1" connectable="0">
          <mxGeometry x="0.7143" y="4" relative="1" as="geometry">
            <mxPoint y="-10" as="offset" />
          </mxGeometry>
        </mxCell>
        <mxCell id="0bDY6pHK7f60NX-sRXFF-60" style="edgeStyle=orthogonalEdgeStyle;rounded=0;orthogonalLoop=1;jettySize=auto;html=1;entryX=0.5;entryY=0;entryDx=0;entryDy=0;fillColor=#dae8fc;strokeColor=#6c8ebf;exitX=1;exitY=0.75;exitDx=0;exitDy=0;" parent="1" source="0bDY6pHK7f60NX-sRXFF-6" target="7vYZw_Ll1ZlMQLN4fyFe-2" edge="1">
          <mxGeometry relative="1" as="geometry">
            <mxPoint x="1450" y="150" as="sourcePoint" />
            <Array as="points">
              <mxPoint x="1500" y="135" />
            </Array>
          </mxGeometry>
        </mxCell>
        <mxCell id="kbf2NheLQL4DpZ3DzO19-1" value="default&lt;div&gt;Security group&lt;/div&gt;" style="edgeLabel;html=1;align=center;verticalAlign=middle;resizable=0;points=[];" parent="0bDY6pHK7f60NX-sRXFF-60" vertex="1" connectable="0">
          <mxGeometry x="0.7093" relative="1" as="geometry">
            <mxPoint y="-37" as="offset" />
          </mxGeometry>
        </mxCell>
        <mxCell id="kbf2NheLQL4DpZ3DzO19-2" value="max: 500" style="edgeLabel;html=1;align=center;verticalAlign=middle;resizable=0;points=[];" parent="0bDY6pHK7f60NX-sRXFF-60" vertex="1" connectable="0">
          <mxGeometry x="0.8947" y="-3" relative="1" as="geometry">
            <mxPoint x="3" y="-4" as="offset" />
          </mxGeometry>
        </mxCell>
        <mxCell id="0bDY6pHK7f60NX-sRXFF-6" value="VPC" style="rounded=0;whiteSpace=wrap;html=1;" parent="1" vertex="1">
          <mxGeometry x="1321" y="90" width="120" height="60" as="geometry" />
        </mxCell>
        <mxCell id="0bDY6pHK7f60NX-sRXFF-9" value="Connected&amp;nbsp;&lt;div&gt;in same&lt;/div&gt;&lt;div&gt;VPC&lt;/div&gt;" style="rounded=0;whiteSpace=wrap;html=1;" parent="1" vertex="1">
          <mxGeometry x="1171" y="200" width="70" height="60" as="geometry" />
        </mxCell>
        <mxCell id="0bDY6pHK7f60NX-sRXFF-14" style="edgeStyle=orthogonalEdgeStyle;rounded=0;orthogonalLoop=1;jettySize=auto;html=1;entryX=0.5;entryY=0;entryDx=0;entryDy=0;" parent="1" source="0bDY6pHK7f60NX-sRXFF-13" target="0bDY6pHK7f60NX-sRXFF-6" edge="1">
          <mxGeometry relative="1" as="geometry" />
        </mxCell>
        <mxCell id="0bDY6pHK7f60NX-sRXFF-53" value="Max: 5" style="edgeLabel;html=1;align=center;verticalAlign=middle;resizable=0;points=[];" parent="0bDY6pHK7f60NX-sRXFF-14" vertex="1" connectable="0">
          <mxGeometry x="0.4857" y="-2" relative="1" as="geometry">
            <mxPoint as="offset" />
          </mxGeometry>
        </mxCell>
        <mxCell id="0bDY6pHK7f60NX-sRXFF-54" value="1" style="edgeLabel;html=1;align=center;verticalAlign=middle;resizable=0;points=[];" parent="0bDY6pHK7f60NX-sRXFF-14" vertex="1" connectable="0">
          <mxGeometry x="-0.6667" relative="1" as="geometry">
            <mxPoint as="offset" />
          </mxGeometry>
        </mxCell>
        <mxCell id="0bDY6pHK7f60NX-sRXFF-13" value="Region" style="rounded=0;whiteSpace=wrap;html=1;" parent="1" vertex="1">
          <mxGeometry x="1321" y="-90" width="120" height="60" as="geometry" />
        </mxCell>
        <mxCell id="0bDY6pHK7f60NX-sRXFF-27" value="EIP" style="rounded=0;whiteSpace=wrap;html=1;fillColor=#fff2cc;strokeColor=#d6b656;" parent="1" vertex="1">
          <mxGeometry x="1780" y="100" width="50" height="30" as="geometry" />
        </mxCell>
        <mxCell id="0bDY6pHK7f60NX-sRXFF-36" value="Type" style="swimlane;fontStyle=0;childLayout=stackLayout;horizontal=1;startSize=30;horizontalStack=0;resizeParent=1;resizeParentMax=0;resizeLast=0;collapsible=1;marginBottom=0;whiteSpace=wrap;html=1;" parent="1" vertex="1">
          <mxGeometry x="960" y="170" width="90" height="120" as="geometry">
            <mxRectangle x="960" y="170" width="70" height="30" as="alternateBounds" />
          </mxGeometry>
        </mxCell>
        <mxCell id="0bDY6pHK7f60NX-sRXFF-37" value="Public" style="text;strokeColor=none;fillColor=none;align=left;verticalAlign=middle;spacingLeft=4;spacingRight=4;overflow=hidden;points=[[0,0.5],[1,0.5]];portConstraint=eastwest;rotatable=0;whiteSpace=wrap;html=1;" parent="0bDY6pHK7f60NX-sRXFF-36" vertex="1">
          <mxGeometry y="30" width="90" height="30" as="geometry" />
        </mxCell>
        <mxCell id="0bDY6pHK7f60NX-sRXFF-38" value="Private" style="text;strokeColor=none;fillColor=none;align=left;verticalAlign=middle;spacingLeft=4;spacingRight=4;overflow=hidden;points=[[0,0.5],[1,0.5]];portConstraint=eastwest;rotatable=0;whiteSpace=wrap;html=1;" parent="0bDY6pHK7f60NX-sRXFF-36" vertex="1">
          <mxGeometry y="60" width="90" height="30" as="geometry" />
        </mxCell>
        <mxCell id="0bDY6pHK7f60NX-sRXFF-39" value="VPN only" style="text;strokeColor=none;fillColor=none;align=left;verticalAlign=middle;spacingLeft=4;spacingRight=4;overflow=hidden;points=[[0,0.5],[1,0.5]];portConstraint=eastwest;rotatable=0;whiteSpace=wrap;html=1;" parent="0bDY6pHK7f60NX-sRXFF-36" vertex="1">
          <mxGeometry y="90" width="90" height="30" as="geometry" />
        </mxCell>
        <mxCell id="0bDY6pHK7f60NX-sRXFF-40" value="Disable the source/destination check" style="rounded=0;whiteSpace=wrap;html=1;" parent="1" vertex="1">
          <mxGeometry x="2020" y="220" width="120" height="60" as="geometry" />
        </mxCell>
        <mxCell id="0bDY6pHK7f60NX-sRXFF-43" style="edgeStyle=orthogonalEdgeStyle;rounded=0;orthogonalLoop=1;jettySize=auto;html=1;endArrow=none;endFill=0;" parent="1" source="0bDY6pHK7f60NX-sRXFF-41" target="0bDY6pHK7f60NX-sRXFF-40" edge="1">
          <mxGeometry relative="1" as="geometry" />
        </mxCell>
        <mxCell id="0bDY6pHK7f60NX-sRXFF-48" style="edgeStyle=orthogonalEdgeStyle;rounded=0;orthogonalLoop=1;jettySize=auto;html=1;entryX=0.25;entryY=0;entryDx=0;entryDy=0;endArrow=none;endFill=0;" parent="1" source="0bDY6pHK7f60NX-sRXFF-41" target="0bDY6pHK7f60NX-sRXFF-47" edge="1">
          <mxGeometry relative="1" as="geometry" />
        </mxCell>
        <mxCell id="0bDY6pHK7f60NX-sRXFF-41" value="NAT instance" style="rounded=0;whiteSpace=wrap;html=1;" parent="1" vertex="1">
          <mxGeometry x="1850" y="220" width="120" height="60" as="geometry" />
        </mxCell>
        <mxCell id="0bDY6pHK7f60NX-sRXFF-44" value="EIP" style="rounded=0;whiteSpace=wrap;html=1;fillColor=#fff2cc;strokeColor=#d6b656;" parent="1" vertex="1">
          <mxGeometry x="1750" y="190" width="50" height="30" as="geometry" />
        </mxCell>
        <mxCell id="0bDY6pHK7f60NX-sRXFF-45" value="EIP" style="rounded=0;whiteSpace=wrap;html=1;fillColor=#fff2cc;strokeColor=#d6b656;" parent="1" vertex="1">
          <mxGeometry x="1950" y="190" width="50" height="30" as="geometry" />
        </mxCell>
        <mxCell id="0bDY6pHK7f60NX-sRXFF-49" style="edgeStyle=orthogonalEdgeStyle;rounded=0;orthogonalLoop=1;jettySize=auto;html=1;entryX=0.75;entryY=0;entryDx=0;entryDy=0;" parent="1" source="0bDY6pHK7f60NX-sRXFF-46" target="0bDY6pHK7f60NX-sRXFF-47" edge="1">
          <mxGeometry relative="1" as="geometry" />
        </mxCell>
        <mxCell id="0bDY6pHK7f60NX-sRXFF-50" value="Attach" style="edgeLabel;html=1;align=center;verticalAlign=middle;resizable=0;points=[];" parent="0bDY6pHK7f60NX-sRXFF-49" vertex="1" connectable="0">
          <mxGeometry x="0.2923" y="3" relative="1" as="geometry">
            <mxPoint as="offset" />
          </mxGeometry>
        </mxCell>
        <mxCell id="0bDY6pHK7f60NX-sRXFF-46" value="Security&amp;nbsp;&lt;div&gt;Group&lt;/div&gt;" style="rounded=0;whiteSpace=wrap;html=1;" parent="1" vertex="1">
          <mxGeometry x="1945" y="280" width="50" height="30" as="geometry" />
        </mxCell>
        <mxCell id="0bDY6pHK7f60NX-sRXFF-47" value="Iinux NAT AMI" style="rounded=0;whiteSpace=wrap;html=1;" parent="1" vertex="1">
          <mxGeometry x="1880" y="370" width="120" height="60" as="geometry" />
        </mxCell>
        <mxCell id="0bDY6pHK7f60NX-sRXFF-59" value="Stateless" style="rounded=0;whiteSpace=wrap;html=1;fillColor=#fff2cc;strokeColor=#d6b656;" parent="1" vertex="1">
          <mxGeometry x="1559" y="645" width="70" height="60" as="geometry" />
        </mxCell>
        <mxCell id="ZSEnw3eOuly0O_GajFQ5-10" style="edgeStyle=orthogonalEdgeStyle;rounded=0;orthogonalLoop=1;jettySize=auto;html=1;entryX=1;entryY=0.25;entryDx=0;entryDy=0;" edge="1" parent="1" source="ZSEnw3eOuly0O_GajFQ5-1" target="ZSEnw3eOuly0O_GajFQ5-7">
          <mxGeometry relative="1" as="geometry" />
        </mxCell>
        <mxCell id="ZSEnw3eOuly0O_GajFQ5-1" value="Virtual private gateway" style="rounded=0;whiteSpace=wrap;html=1;fillColor=#dae8fc;strokeColor=#6c8ebf;" vertex="1" parent="1">
          <mxGeometry x="240" y="790" width="120" height="60" as="geometry" />
        </mxCell>
        <mxCell id="ZSEnw3eOuly0O_GajFQ5-2" value="AWS VPC to AWS VPC" style="rounded=0;whiteSpace=wrap;html=1;" vertex="1" parent="1">
          <mxGeometry x="-140" y="130" width="90" height="630" as="geometry" />
        </mxCell>
        <mxCell id="ZSEnw3eOuly0O_GajFQ5-4" style="edgeStyle=orthogonalEdgeStyle;rounded=0;orthogonalLoop=1;jettySize=auto;html=1;" edge="1" parent="1" source="ZSEnw3eOuly0O_GajFQ5-3" target="ZSEnw3eOuly0O_GajFQ5-1">
          <mxGeometry relative="1" as="geometry" />
        </mxCell>
        <mxCell id="ZSEnw3eOuly0O_GajFQ5-3" value="AWS Site to Site VPN" style="rounded=0;whiteSpace=wrap;html=1;fillColor=#fff2cc;strokeColor=#d6b656;" vertex="1" parent="1">
          <mxGeometry x="490" y="790" width="120" height="60" as="geometry" />
        </mxCell>
        <mxCell id="ZSEnw3eOuly0O_GajFQ5-9" style="edgeStyle=orthogonalEdgeStyle;rounded=0;orthogonalLoop=1;jettySize=auto;html=1;entryX=1;entryY=0.75;entryDx=0;entryDy=0;" edge="1" parent="1" source="ZSEnw3eOuly0O_GajFQ5-5" target="ZSEnw3eOuly0O_GajFQ5-7">
          <mxGeometry relative="1" as="geometry" />
        </mxCell>
        <mxCell id="ZSEnw3eOuly0O_GajFQ5-5" value="&lt;span style=&quot;color: rgb(0, 7, 22); font-family: &amp;quot;Amazon Ember&amp;quot;, Helvetica, Arial, sans-serif; font-size: 16px; text-align: start;&quot;&gt;AWS Transit Gateway&lt;/span&gt;" style="rounded=0;whiteSpace=wrap;html=1;fillColor=#d5e8d4;strokeColor=#82b366;labelBackgroundColor=none;" vertex="1" parent="1">
          <mxGeometry x="250" y="890" width="120" height="60" as="geometry" />
        </mxCell>
        <mxCell id="ZSEnw3eOuly0O_GajFQ5-7" value="AWS Direct Connect" style="rounded=0;whiteSpace=wrap;html=1;" vertex="1" parent="1">
          <mxGeometry x="-10" y="840" width="120" height="60" as="geometry" />
        </mxCell>
        <mxCell id="ZSEnw3eOuly0O_GajFQ5-12" value="802.1Q" style="rounded=0;whiteSpace=wrap;html=1;" vertex="1" parent="1">
          <mxGeometry x="-10" y="900" width="90" height="40" as="geometry" />
        </mxCell>
        <mxCell id="ZSEnw3eOuly0O_GajFQ5-13" value="Redundant AWS Direct Connect" style="rounded=0;whiteSpace=wrap;html=1;" vertex="1" parent="1">
          <mxGeometry x="-50" y="780" width="120" height="60" as="geometry" />
        </mxCell>
        <mxCell id="ZSEnw3eOuly0O_GajFQ5-17" style="edgeStyle=orthogonalEdgeStyle;rounded=0;orthogonalLoop=1;jettySize=auto;html=1;entryX=1;entryY=0.5;entryDx=0;entryDy=0;" edge="1" parent="1" source="ZSEnw3eOuly0O_GajFQ5-14" target="ZSEnw3eOuly0O_GajFQ5-15">
          <mxGeometry relative="1" as="geometry" />
        </mxCell>
        <mxCell id="ZSEnw3eOuly0O_GajFQ5-18" style="edgeStyle=orthogonalEdgeStyle;rounded=0;orthogonalLoop=1;jettySize=auto;html=1;entryX=1;entryY=0.5;entryDx=0;entryDy=0;" edge="1" parent="1" source="ZSEnw3eOuly0O_GajFQ5-14" target="ZSEnw3eOuly0O_GajFQ5-16">
          <mxGeometry relative="1" as="geometry" />
        </mxCell>
        <mxCell id="ZSEnw3eOuly0O_GajFQ5-14" value="Direct Connect Gateway" style="rounded=0;whiteSpace=wrap;html=1;" vertex="1" parent="1">
          <mxGeometry x="120" y="1160" width="120" height="60" as="geometry" />
        </mxCell>
        <mxCell id="ZSEnw3eOuly0O_GajFQ5-15" value="Region A" style="rounded=0;whiteSpace=wrap;html=1;align=left;horizontal=1;verticalAlign=top;" vertex="1" parent="1">
          <mxGeometry x="-180" y="1080" width="240" height="100" as="geometry" />
        </mxCell>
        <mxCell id="ZSEnw3eOuly0O_GajFQ5-16" value="Region B" style="rounded=0;whiteSpace=wrap;html=1;verticalAlign=top;align=left;" vertex="1" parent="1">
          <mxGeometry x="-180" y="1200" width="240" height="110" as="geometry" />
        </mxCell>
        <mxCell id="ZSEnw3eOuly0O_GajFQ5-23" style="edgeStyle=orthogonalEdgeStyle;rounded=0;orthogonalLoop=1;jettySize=auto;html=1;entryX=1;entryY=0.5;entryDx=0;entryDy=0;" edge="1" parent="1" source="ZSEnw3eOuly0O_GajFQ5-19" target="ZSEnw3eOuly0O_GajFQ5-21">
          <mxGeometry relative="1" as="geometry" />
        </mxCell>
        <mxCell id="ZSEnw3eOuly0O_GajFQ5-24" style="edgeStyle=orthogonalEdgeStyle;rounded=0;orthogonalLoop=1;jettySize=auto;html=1;entryX=1;entryY=0.5;entryDx=0;entryDy=0;" edge="1" parent="1" source="ZSEnw3eOuly0O_GajFQ5-19" target="ZSEnw3eOuly0O_GajFQ5-22">
          <mxGeometry relative="1" as="geometry" />
        </mxCell>
        <mxCell id="ZSEnw3eOuly0O_GajFQ5-19" value="Customer Gateway" style="rounded=0;whiteSpace=wrap;html=1;" vertex="1" parent="1">
          <mxGeometry x="600" y="1160" width="120" height="60" as="geometry" />
        </mxCell>
        <mxCell id="ZSEnw3eOuly0O_GajFQ5-26" style="edgeStyle=orthogonalEdgeStyle;rounded=0;orthogonalLoop=1;jettySize=auto;html=1;entryX=1;entryY=0.5;entryDx=0;entryDy=0;" edge="1" parent="1" source="ZSEnw3eOuly0O_GajFQ5-21" target="ZSEnw3eOuly0O_GajFQ5-14">
          <mxGeometry relative="1" as="geometry">
            <Array as="points">
              <mxPoint x="360" y="1150" />
              <mxPoint x="360" y="1190" />
            </Array>
          </mxGeometry>
        </mxCell>
        <mxCell id="ZSEnw3eOuly0O_GajFQ5-21" value="Direct Connect 1" style="rounded=0;whiteSpace=wrap;html=1;" vertex="1" parent="1">
          <mxGeometry x="430" y="1120" width="120" height="60" as="geometry" />
        </mxCell>
        <mxCell id="ZSEnw3eOuly0O_GajFQ5-25" style="edgeStyle=orthogonalEdgeStyle;rounded=0;orthogonalLoop=1;jettySize=auto;html=1;entryX=1;entryY=0.5;entryDx=0;entryDy=0;" edge="1" parent="1" source="ZSEnw3eOuly0O_GajFQ5-22" target="ZSEnw3eOuly0O_GajFQ5-14">
          <mxGeometry relative="1" as="geometry">
            <Array as="points">
              <mxPoint x="360" y="1230" />
              <mxPoint x="360" y="1190" />
            </Array>
          </mxGeometry>
        </mxCell>
        <mxCell id="ZSEnw3eOuly0O_GajFQ5-27" value="Private VIF" style="edgeLabel;html=1;align=center;verticalAlign=middle;resizable=0;points=[];" vertex="1" connectable="0" parent="ZSEnw3eOuly0O_GajFQ5-25">
          <mxGeometry x="0.5217" y="1" relative="1" as="geometry">
            <mxPoint as="offset" />
          </mxGeometry>
        </mxCell>
        <mxCell id="ZSEnw3eOuly0O_GajFQ5-22" value="Direct Connect 2" style="rounded=0;whiteSpace=wrap;html=1;" vertex="1" parent="1">
          <mxGeometry x="430" y="1200" width="120" height="60" as="geometry" />
        </mxCell>
        <mxCell id="ZSEnw3eOuly0O_GajFQ5-29" value="Virtual private gateway" style="rounded=0;whiteSpace=wrap;html=1;fillColor=#dae8fc;strokeColor=#6c8ebf;" vertex="1" parent="1">
          <mxGeometry x="120" y="1090" width="120" height="60" as="geometry" />
        </mxCell>
        <mxCell id="ZSEnw3eOuly0O_GajFQ5-32" value="&lt;span style=&quot;color: rgb(0, 7, 22); font-family: &amp;quot;Amazon Ember&amp;quot;, Helvetica, Arial, sans-serif; font-size: 16px; text-align: start;&quot;&gt;AWS Transit Gateway&lt;/span&gt;" style="rounded=0;html=1;fillColor=#d5e8d4;strokeColor=#82b366;labelBackgroundColor=none;whiteSpace=wrap;" vertex="1" parent="1">
          <mxGeometry x="-60" y="1100" width="120" height="60" as="geometry" />
        </mxCell>
        <mxCell id="ZSEnw3eOuly0O_GajFQ5-33" value="&lt;span style=&quot;color: rgb(0, 7, 22); font-family: &amp;quot;Amazon Ember&amp;quot;, Helvetica, Arial, sans-serif; font-size: 16px; text-align: start;&quot;&gt;AWS Transit Gateway&lt;/span&gt;" style="rounded=0;whiteSpace=wrap;html=1;fillColor=#d5e8d4;strokeColor=#82b366;labelBackgroundColor=none;" vertex="1" parent="1">
          <mxGeometry x="-60" y="1225" width="120" height="60" as="geometry" />
        </mxCell>
      </root>
    </mxGraphModel>
  </diagram>
  <diagram id="VzVv5OnIGod3jgw4EcCG" name="ec2">
    <mxGraphModel dx="2514" dy="2077" grid="1" gridSize="10" guides="1" tooltips="1" connect="1" arrows="1" fold="1" page="1" pageScale="1" pageWidth="827" pageHeight="1169" math="0" shadow="0">
      <root>
        <mxCell id="0" />
        <mxCell id="1" parent="0" />
        <mxCell id="x4cfrqWvNifw0V-jCvZV-17" style="edgeStyle=orthogonalEdgeStyle;rounded=0;orthogonalLoop=1;jettySize=auto;html=1;entryX=0.5;entryY=0;entryDx=0;entryDy=0;" parent="1" source="x4cfrqWvNifw0V-jCvZV-1" target="x4cfrqWvNifw0V-jCvZV-9" edge="1">
          <mxGeometry relative="1" as="geometry">
            <Array as="points">
              <mxPoint x="410" y="440" />
              <mxPoint x="300" y="440" />
            </Array>
          </mxGeometry>
        </mxCell>
        <mxCell id="x4cfrqWvNifw0V-jCvZV-18" style="edgeStyle=orthogonalEdgeStyle;rounded=0;orthogonalLoop=1;jettySize=auto;html=1;" parent="1" source="x4cfrqWvNifw0V-jCvZV-1" target="x4cfrqWvNifw0V-jCvZV-8" edge="1">
          <mxGeometry relative="1" as="geometry" />
        </mxCell>
        <mxCell id="x4cfrqWvNifw0V-jCvZV-29" style="edgeStyle=orthogonalEdgeStyle;rounded=0;orthogonalLoop=1;jettySize=auto;html=1;entryX=0.5;entryY=1;entryDx=0;entryDy=0;" parent="1" source="x4cfrqWvNifw0V-jCvZV-1" target="x4cfrqWvNifw0V-jCvZV-27" edge="1">
          <mxGeometry relative="1" as="geometry" />
        </mxCell>
        <mxCell id="x4cfrqWvNifw0V-jCvZV-31" style="edgeStyle=orthogonalEdgeStyle;rounded=0;orthogonalLoop=1;jettySize=auto;html=1;entryX=0;entryY=0.5;entryDx=0;entryDy=0;" parent="1" source="x4cfrqWvNifw0V-jCvZV-1" target="x4cfrqWvNifw0V-jCvZV-30" edge="1">
          <mxGeometry relative="1" as="geometry" />
        </mxCell>
        <mxCell id="x4cfrqWvNifw0V-jCvZV-34" style="edgeStyle=orthogonalEdgeStyle;rounded=0;orthogonalLoop=1;jettySize=auto;html=1;" parent="1" source="x4cfrqWvNifw0V-jCvZV-1" target="x4cfrqWvNifw0V-jCvZV-32" edge="1">
          <mxGeometry relative="1" as="geometry" />
        </mxCell>
        <mxCell id="x4cfrqWvNifw0V-jCvZV-56" style="edgeStyle=orthogonalEdgeStyle;rounded=0;orthogonalLoop=1;jettySize=auto;html=1;entryX=0;entryY=0.5;entryDx=0;entryDy=0;" parent="1" source="x4cfrqWvNifw0V-jCvZV-1" target="x4cfrqWvNifw0V-jCvZV-55" edge="1">
          <mxGeometry relative="1" as="geometry">
            <Array as="points">
              <mxPoint x="410" y="440" />
              <mxPoint x="550" y="440" />
            </Array>
          </mxGeometry>
        </mxCell>
        <mxCell id="x4cfrqWvNifw0V-jCvZV-58" style="edgeStyle=orthogonalEdgeStyle;rounded=0;orthogonalLoop=1;jettySize=auto;html=1;entryX=0;entryY=0.75;entryDx=0;entryDy=0;" parent="1" source="x4cfrqWvNifw0V-jCvZV-1" target="x4cfrqWvNifw0V-jCvZV-35" edge="1">
          <mxGeometry relative="1" as="geometry" />
        </mxCell>
        <mxCell id="x4cfrqWvNifw0V-jCvZV-1" value="ec2" style="rounded=0;whiteSpace=wrap;html=1;" parent="1" vertex="1">
          <mxGeometry x="350" y="260" width="120" height="60" as="geometry" />
        </mxCell>
        <mxCell id="x4cfrqWvNifw0V-jCvZV-54" style="edgeStyle=orthogonalEdgeStyle;rounded=0;orthogonalLoop=1;jettySize=auto;html=1;entryX=0.5;entryY=0;entryDx=0;entryDy=0;" parent="1" source="x4cfrqWvNifw0V-jCvZV-2" target="x4cfrqWvNifw0V-jCvZV-52" edge="1">
          <mxGeometry relative="1" as="geometry">
            <Array as="points">
              <mxPoint x="380" y="370" />
              <mxPoint x="170" y="370" />
            </Array>
          </mxGeometry>
        </mxCell>
        <mxCell id="x4cfrqWvNifw0V-jCvZV-2" value="instance store" style="rounded=0;whiteSpace=wrap;html=1;" parent="1" vertex="1">
          <mxGeometry x="350" y="320" width="60" height="40" as="geometry" />
        </mxCell>
        <mxCell id="x4cfrqWvNifw0V-jCvZV-3" value="M (Medium)" style="rounded=0;whiteSpace=wrap;html=1;" parent="1" vertex="1">
          <mxGeometry x="940" y="130" width="120" height="60" as="geometry" />
        </mxCell>
        <mxCell id="x4cfrqWvNifw0V-jCvZV-4" value="I(Storage)" style="rounded=0;whiteSpace=wrap;html=1;" parent="1" vertex="1">
          <mxGeometry x="940" y="220" width="120" height="60" as="geometry" />
        </mxCell>
        <mxCell id="x4cfrqWvNifw0V-jCvZV-5" value="C(CPU)" style="rounded=0;whiteSpace=wrap;html=1;" parent="1" vertex="1">
          <mxGeometry x="940" y="310" width="120" height="60" as="geometry" />
        </mxCell>
        <mxCell id="x4cfrqWvNifw0V-jCvZV-6" value="G(GPU)" style="rounded=0;whiteSpace=wrap;html=1;" parent="1" vertex="1">
          <mxGeometry x="940" y="400" width="120" height="60" as="geometry" />
        </mxCell>
        <mxCell id="x4cfrqWvNifw0V-jCvZV-7" value="R(Memory)" style="rounded=0;whiteSpace=wrap;html=1;" parent="1" vertex="1">
          <mxGeometry x="940" y="490" width="120" height="60" as="geometry" />
        </mxCell>
        <mxCell id="x4cfrqWvNifw0V-jCvZV-23" style="edgeStyle=orthogonalEdgeStyle;rounded=0;orthogonalLoop=1;jettySize=auto;html=1;entryX=1;entryY=0.5;entryDx=0;entryDy=0;" parent="1" source="x4cfrqWvNifw0V-jCvZV-8" target="x4cfrqWvNifw0V-jCvZV-19" edge="1">
          <mxGeometry relative="1" as="geometry" />
        </mxCell>
        <mxCell id="x4cfrqWvNifw0V-jCvZV-24" style="edgeStyle=orthogonalEdgeStyle;rounded=0;orthogonalLoop=1;jettySize=auto;html=1;" parent="1" source="x4cfrqWvNifw0V-jCvZV-8" target="x4cfrqWvNifw0V-jCvZV-21" edge="1">
          <mxGeometry relative="1" as="geometry" />
        </mxCell>
        <mxCell id="x4cfrqWvNifw0V-jCvZV-25" style="edgeStyle=orthogonalEdgeStyle;rounded=0;orthogonalLoop=1;jettySize=auto;html=1;entryX=1;entryY=0.75;entryDx=0;entryDy=0;" parent="1" source="x4cfrqWvNifw0V-jCvZV-8" target="x4cfrqWvNifw0V-jCvZV-22" edge="1">
          <mxGeometry relative="1" as="geometry" />
        </mxCell>
        <mxCell id="x4cfrqWvNifw0V-jCvZV-8" value="EBS" style="rounded=0;whiteSpace=wrap;html=1;" parent="1" vertex="1">
          <mxGeometry x="80" y="260" width="120" height="60" as="geometry" />
        </mxCell>
        <mxCell id="x4cfrqWvNifw0V-jCvZV-14" style="edgeStyle=orthogonalEdgeStyle;rounded=0;orthogonalLoop=1;jettySize=auto;html=1;entryX=0.5;entryY=0;entryDx=0;entryDy=0;" parent="1" source="x4cfrqWvNifw0V-jCvZV-9" target="x4cfrqWvNifw0V-jCvZV-10" edge="1">
          <mxGeometry relative="1" as="geometry" />
        </mxCell>
        <mxCell id="x4cfrqWvNifw0V-jCvZV-15" style="edgeStyle=orthogonalEdgeStyle;rounded=0;orthogonalLoop=1;jettySize=auto;html=1;entryX=0.5;entryY=0;entryDx=0;entryDy=0;" parent="1" source="x4cfrqWvNifw0V-jCvZV-9" target="x4cfrqWvNifw0V-jCvZV-11" edge="1">
          <mxGeometry relative="1" as="geometry" />
        </mxCell>
        <mxCell id="x4cfrqWvNifw0V-jCvZV-16" style="edgeStyle=orthogonalEdgeStyle;rounded=0;orthogonalLoop=1;jettySize=auto;html=1;entryX=0.5;entryY=0;entryDx=0;entryDy=0;" parent="1" source="x4cfrqWvNifw0V-jCvZV-9" target="x4cfrqWvNifw0V-jCvZV-12" edge="1">
          <mxGeometry relative="1" as="geometry">
            <mxPoint x="450" y="630" as="targetPoint" />
          </mxGeometry>
        </mxCell>
        <mxCell id="x4cfrqWvNifw0V-jCvZV-9" value="Tenancy" style="rounded=0;whiteSpace=wrap;html=1;" parent="1" vertex="1">
          <mxGeometry x="240" y="550" width="120" height="60" as="geometry" />
        </mxCell>
        <mxCell id="x4cfrqWvNifw0V-jCvZV-10" value="Shared" style="rounded=0;whiteSpace=wrap;html=1;" parent="1" vertex="1">
          <mxGeometry x="110" y="640" width="120" height="60" as="geometry" />
        </mxCell>
        <mxCell id="x4cfrqWvNifw0V-jCvZV-11" value="Dedicated Instance" style="rounded=0;whiteSpace=wrap;html=1;" parent="1" vertex="1">
          <mxGeometry x="240" y="640" width="120" height="60" as="geometry" />
        </mxCell>
        <mxCell id="x4cfrqWvNifw0V-jCvZV-12" value="Dedicated Host" style="rounded=0;whiteSpace=wrap;html=1;" parent="1" vertex="1">
          <mxGeometry x="380" y="640" width="120" height="60" as="geometry" />
        </mxCell>
        <mxCell id="x4cfrqWvNifw0V-jCvZV-19" value="General Purpose SSD&lt;div&gt;3 IOPS/GB&lt;/div&gt;" style="rounded=0;whiteSpace=wrap;html=1;" parent="1" vertex="1">
          <mxGeometry x="-90" y="170" width="120" height="60" as="geometry" />
        </mxCell>
        <mxCell id="x4cfrqWvNifw0V-jCvZV-21" value="Provisioned IOPS SSD&lt;div&gt;20K IOPS&lt;/div&gt;" style="rounded=0;whiteSpace=wrap;html=1;" parent="1" vertex="1">
          <mxGeometry x="-90" y="260" width="120" height="60" as="geometry" />
        </mxCell>
        <mxCell id="x4cfrqWvNifw0V-jCvZV-22" value="Magenetic&lt;div&gt;100 IOPS&lt;/div&gt;" style="rounded=0;whiteSpace=wrap;html=1;" parent="1" vertex="1">
          <mxGeometry x="-90" y="340" width="120" height="60" as="geometry" />
        </mxCell>
        <mxCell id="x4cfrqWvNifw0V-jCvZV-26" value="EBS-Optimzied Instances" style="rounded=0;whiteSpace=wrap;html=1;" parent="1" vertex="1">
          <mxGeometry x="80" y="190" width="120" height="60" as="geometry" />
        </mxCell>
        <mxCell id="x4cfrqWvNifw0V-jCvZV-27" value="Snapshort" style="rounded=0;whiteSpace=wrap;html=1;" parent="1" vertex="1">
          <mxGeometry x="250" y="130" width="120" height="60" as="geometry" />
        </mxCell>
        <mxCell id="x4cfrqWvNifw0V-jCvZV-28" value="Region only" style="rounded=0;whiteSpace=wrap;html=1;" parent="1" vertex="1">
          <mxGeometry x="300" y="90" width="70" height="40" as="geometry" />
        </mxCell>
        <mxCell id="x4cfrqWvNifw0V-jCvZV-30" value="AMI" style="rounded=0;whiteSpace=wrap;html=1;" parent="1" vertex="1">
          <mxGeometry x="550" y="200" width="80" height="40" as="geometry" />
        </mxCell>
        <mxCell id="x4cfrqWvNifw0V-jCvZV-32" value="Bootstrapping" style="rounded=0;whiteSpace=wrap;html=1;" parent="1" vertex="1">
          <mxGeometry x="600" y="260" width="120" height="60" as="geometry" />
        </mxCell>
        <mxCell id="x4cfrqWvNifw0V-jCvZV-42" style="edgeStyle=orthogonalEdgeStyle;rounded=0;orthogonalLoop=1;jettySize=auto;html=1;entryX=0;entryY=0.5;entryDx=0;entryDy=0;" parent="1" source="x4cfrqWvNifw0V-jCvZV-35" target="x4cfrqWvNifw0V-jCvZV-36" edge="1">
          <mxGeometry relative="1" as="geometry" />
        </mxCell>
        <mxCell id="x4cfrqWvNifw0V-jCvZV-43" style="edgeStyle=orthogonalEdgeStyle;rounded=0;orthogonalLoop=1;jettySize=auto;html=1;entryX=0;entryY=0.5;entryDx=0;entryDy=0;" parent="1" source="x4cfrqWvNifw0V-jCvZV-35" target="x4cfrqWvNifw0V-jCvZV-37" edge="1">
          <mxGeometry relative="1" as="geometry" />
        </mxCell>
        <mxCell id="x4cfrqWvNifw0V-jCvZV-44" style="edgeStyle=orthogonalEdgeStyle;rounded=0;orthogonalLoop=1;jettySize=auto;html=1;entryX=0;entryY=0.5;entryDx=0;entryDy=0;" parent="1" source="x4cfrqWvNifw0V-jCvZV-35" target="x4cfrqWvNifw0V-jCvZV-40" edge="1">
          <mxGeometry relative="1" as="geometry" />
        </mxCell>
        <mxCell id="x4cfrqWvNifw0V-jCvZV-35" value="Pricing" style="rounded=0;whiteSpace=wrap;html=1;" parent="1" vertex="1">
          <mxGeometry x="465" y="30" width="90" height="40" as="geometry" />
        </mxCell>
        <mxCell id="x4cfrqWvNifw0V-jCvZV-36" value="On-Demand Instances" style="rounded=0;whiteSpace=wrap;html=1;" parent="1" vertex="1">
          <mxGeometry x="640" y="-60" width="120" height="60" as="geometry" />
        </mxCell>
        <mxCell id="x4cfrqWvNifw0V-jCvZV-37" value="Reserved Instance" style="rounded=0;whiteSpace=wrap;html=1;" parent="1" vertex="1">
          <mxGeometry x="640" y="20" width="120" height="60" as="geometry" />
        </mxCell>
        <mxCell id="x4cfrqWvNifw0V-jCvZV-40" value="Sport Instance" style="rounded=0;whiteSpace=wrap;html=1;" parent="1" vertex="1">
          <mxGeometry x="640" y="100" width="120" height="60" as="geometry" />
        </mxCell>
        <mxCell id="x4cfrqWvNifw0V-jCvZV-47" style="edgeStyle=orthogonalEdgeStyle;rounded=0;orthogonalLoop=1;jettySize=auto;html=1;exitX=1;exitY=0.5;exitDx=0;exitDy=0;" parent="1" source="x4cfrqWvNifw0V-jCvZV-46" target="x4cfrqWvNifw0V-jCvZV-5" edge="1">
          <mxGeometry relative="1" as="geometry">
            <Array as="points" />
            <mxPoint x="470" y="370" as="sourcePoint" />
          </mxGeometry>
        </mxCell>
        <mxCell id="x4cfrqWvNifw0V-jCvZV-48" style="edgeStyle=orthogonalEdgeStyle;rounded=0;orthogonalLoop=1;jettySize=auto;html=1;entryX=0;entryY=0.5;entryDx=0;entryDy=0;exitX=1;exitY=0.5;exitDx=0;exitDy=0;" parent="1" source="x4cfrqWvNifw0V-jCvZV-46" target="x4cfrqWvNifw0V-jCvZV-4" edge="1">
          <mxGeometry relative="1" as="geometry">
            <Array as="points">
              <mxPoint x="840" y="340" />
              <mxPoint x="840" y="250" />
            </Array>
            <mxPoint x="470" y="370" as="sourcePoint" />
          </mxGeometry>
        </mxCell>
        <mxCell id="x4cfrqWvNifw0V-jCvZV-49" style="edgeStyle=orthogonalEdgeStyle;rounded=0;orthogonalLoop=1;jettySize=auto;html=1;entryX=0;entryY=0.5;entryDx=0;entryDy=0;exitX=1;exitY=0.5;exitDx=0;exitDy=0;" parent="1" source="x4cfrqWvNifw0V-jCvZV-46" target="x4cfrqWvNifw0V-jCvZV-3" edge="1">
          <mxGeometry relative="1" as="geometry">
            <Array as="points">
              <mxPoint x="840" y="340" />
              <mxPoint x="840" y="160" />
            </Array>
            <mxPoint x="470" y="370" as="sourcePoint" />
          </mxGeometry>
        </mxCell>
        <mxCell id="x4cfrqWvNifw0V-jCvZV-50" style="edgeStyle=orthogonalEdgeStyle;rounded=0;orthogonalLoop=1;jettySize=auto;html=1;entryX=0;entryY=0.5;entryDx=0;entryDy=0;exitX=1;exitY=0.5;exitDx=0;exitDy=0;" parent="1" source="x4cfrqWvNifw0V-jCvZV-46" target="x4cfrqWvNifw0V-jCvZV-6" edge="1">
          <mxGeometry relative="1" as="geometry">
            <Array as="points">
              <mxPoint x="840" y="340" />
              <mxPoint x="840" y="430" />
            </Array>
            <mxPoint x="470" y="370" as="sourcePoint" />
          </mxGeometry>
        </mxCell>
        <mxCell id="x4cfrqWvNifw0V-jCvZV-51" style="edgeStyle=orthogonalEdgeStyle;rounded=0;orthogonalLoop=1;jettySize=auto;html=1;entryX=0;entryY=0.5;entryDx=0;entryDy=0;exitX=1;exitY=0.5;exitDx=0;exitDy=0;" parent="1" source="x4cfrqWvNifw0V-jCvZV-46" target="x4cfrqWvNifw0V-jCvZV-7" edge="1">
          <mxGeometry relative="1" as="geometry">
            <Array as="points">
              <mxPoint x="840" y="340" />
              <mxPoint x="840" y="520" />
            </Array>
            <mxPoint x="470" y="370" as="sourcePoint" />
          </mxGeometry>
        </mxCell>
        <mxCell id="x4cfrqWvNifw0V-jCvZV-46" value="instance type" style="rounded=0;whiteSpace=wrap;html=1;" parent="1" vertex="1">
          <mxGeometry x="410" y="320" width="60" height="40" as="geometry" />
        </mxCell>
        <mxCell id="x4cfrqWvNifw0V-jCvZV-52" value="Very High IOPS" style="rounded=0;whiteSpace=wrap;html=1;" parent="1" vertex="1">
          <mxGeometry x="110" y="400" width="120" height="60" as="geometry" />
        </mxCell>
        <mxCell id="x4cfrqWvNifw0V-jCvZV-53" value="Data lost" style="rounded=0;whiteSpace=wrap;html=1;" parent="1" vertex="1">
          <mxGeometry x="110" y="460" width="120" height="60" as="geometry" />
        </mxCell>
        <mxCell id="x4cfrqWvNifw0V-jCvZV-55" value="Placement Groups" style="rounded=0;whiteSpace=wrap;html=1;" parent="1" vertex="1">
          <mxGeometry x="555" y="410" width="120" height="60" as="geometry" />
        </mxCell>
      </root>
    </mxGraphModel>
  </diagram>
  <diagram id="ZmENXJlxdzftP7oxTT3w" name="IAM">
    <mxGraphModel dx="1434" dy="772" grid="1" gridSize="10" guides="1" tooltips="1" connect="1" arrows="1" fold="1" page="1" pageScale="1" pageWidth="827" pageHeight="1169" math="0" shadow="0">
      <root>
        <mxCell id="0" />
        <mxCell id="1" parent="0" />
        <mxCell id="aUV_jErdy8Et5y5GlB_C-54" value="" style="rounded=0;whiteSpace=wrap;html=1;fillColor=#dae8fc;strokeColor=#6c8ebf;" vertex="1" parent="1">
          <mxGeometry x="240" y="390" width="370" height="120" as="geometry" />
        </mxCell>
        <mxCell id="aUV_jErdy8Et5y5GlB_C-14" style="edgeStyle=orthogonalEdgeStyle;rounded=0;orthogonalLoop=1;jettySize=auto;html=1;entryX=0.5;entryY=0;entryDx=0;entryDy=0;" edge="1" parent="1" source="aUV_jErdy8Et5y5GlB_C-1" target="aUV_jErdy8Et5y5GlB_C-2">
          <mxGeometry relative="1" as="geometry" />
        </mxCell>
        <mxCell id="aUV_jErdy8Et5y5GlB_C-1" value="Root user" style="rounded=0;whiteSpace=wrap;html=1;" vertex="1" parent="1">
          <mxGeometry x="330" y="180" width="120" height="60" as="geometry" />
        </mxCell>
        <mxCell id="aUV_jErdy8Et5y5GlB_C-2" value="IAM User" style="rounded=0;whiteSpace=wrap;html=1;" vertex="1" parent="1">
          <mxGeometry x="330" y="300" width="120" height="60" as="geometry" />
        </mxCell>
        <mxCell id="aUV_jErdy8Et5y5GlB_C-15" style="edgeStyle=orthogonalEdgeStyle;rounded=0;orthogonalLoop=1;jettySize=auto;html=1;entryX=0.5;entryY=1;entryDx=0;entryDy=0;" edge="1" parent="1" source="aUV_jErdy8Et5y5GlB_C-3" target="aUV_jErdy8Et5y5GlB_C-2">
          <mxGeometry relative="1" as="geometry">
            <Array as="points">
              <mxPoint x="390" y="440" />
            </Array>
          </mxGeometry>
        </mxCell>
        <mxCell id="aUV_jErdy8Et5y5GlB_C-4" value="Temporary Security Token" style="rounded=0;whiteSpace=wrap;html=1;" vertex="1" parent="1">
          <mxGeometry x="460" y="410" width="120" height="60" as="geometry" />
        </mxCell>
        <mxCell id="aUV_jErdy8Et5y5GlB_C-3" value="Role" style="rounded=0;whiteSpace=wrap;html=1;" vertex="1" parent="1">
          <mxGeometry x="250" y="410" width="120" height="60" as="geometry" />
        </mxCell>
        <mxCell id="aUV_jErdy8Et5y5GlB_C-6" style="edgeStyle=orthogonalEdgeStyle;rounded=0;orthogonalLoop=1;jettySize=auto;html=1;entryX=0.75;entryY=0;entryDx=0;entryDy=0;" edge="1" parent="1" source="aUV_jErdy8Et5y5GlB_C-5" target="aUV_jErdy8Et5y5GlB_C-4">
          <mxGeometry relative="1" as="geometry" />
        </mxCell>
        <mxCell id="aUV_jErdy8Et5y5GlB_C-5" value="Federation" style="rounded=0;whiteSpace=wrap;html=1;" vertex="1" parent="1">
          <mxGeometry x="534" y="260" width="120" height="60" as="geometry" />
        </mxCell>
        <mxCell id="aUV_jErdy8Et5y5GlB_C-12" style="edgeStyle=orthogonalEdgeStyle;rounded=0;orthogonalLoop=1;jettySize=auto;html=1;" edge="1" parent="1" source="aUV_jErdy8Et5y5GlB_C-9" target="aUV_jErdy8Et5y5GlB_C-3">
          <mxGeometry relative="1" as="geometry" />
        </mxCell>
        <mxCell id="aUV_jErdy8Et5y5GlB_C-9" value="EC2 Roles" style="rounded=0;whiteSpace=wrap;html=1;" vertex="1" parent="1">
          <mxGeometry x="90" y="310" width="120" height="60" as="geometry" />
        </mxCell>
        <mxCell id="aUV_jErdy8Et5y5GlB_C-11" style="edgeStyle=orthogonalEdgeStyle;rounded=0;orthogonalLoop=1;jettySize=auto;html=1;" edge="1" parent="1" source="aUV_jErdy8Et5y5GlB_C-10" target="aUV_jErdy8Et5y5GlB_C-3">
          <mxGeometry relative="1" as="geometry" />
        </mxCell>
        <mxCell id="aUV_jErdy8Et5y5GlB_C-10" value="Cross-Account Access" style="rounded=0;whiteSpace=wrap;html=1;" vertex="1" parent="1">
          <mxGeometry x="90" y="410" width="120" height="60" as="geometry" />
        </mxCell>
        <mxCell id="aUV_jErdy8Et5y5GlB_C-20" style="edgeStyle=orthogonalEdgeStyle;rounded=0;orthogonalLoop=1;jettySize=auto;html=1;entryX=0;entryY=0.75;entryDx=0;entryDy=0;" edge="1" parent="1" source="aUV_jErdy8Et5y5GlB_C-13" target="aUV_jErdy8Et5y5GlB_C-17">
          <mxGeometry relative="1" as="geometry" />
        </mxCell>
        <mxCell id="aUV_jErdy8Et5y5GlB_C-21" style="edgeStyle=orthogonalEdgeStyle;rounded=0;orthogonalLoop=1;jettySize=auto;html=1;" edge="1" parent="1" source="aUV_jErdy8Et5y5GlB_C-13" target="aUV_jErdy8Et5y5GlB_C-18">
          <mxGeometry relative="1" as="geometry" />
        </mxCell>
        <mxCell id="aUV_jErdy8Et5y5GlB_C-22" style="edgeStyle=orthogonalEdgeStyle;rounded=0;orthogonalLoop=1;jettySize=auto;html=1;entryX=0;entryY=0.5;entryDx=0;entryDy=0;" edge="1" parent="1" source="aUV_jErdy8Et5y5GlB_C-13" target="aUV_jErdy8Et5y5GlB_C-19">
          <mxGeometry relative="1" as="geometry" />
        </mxCell>
        <mxCell id="aUV_jErdy8Et5y5GlB_C-13" value="AuthN" style="rounded=0;whiteSpace=wrap;html=1;" vertex="1" parent="1">
          <mxGeometry x="630" y="650" width="120" height="60" as="geometry" />
        </mxCell>
        <mxCell id="aUV_jErdy8Et5y5GlB_C-16" value="15M to 36 hours" style="rounded=0;whiteSpace=wrap;html=1;fillColor=#fff2cc;strokeColor=#d6b656;" vertex="1" parent="1">
          <mxGeometry x="460" y="470" width="120" height="20" as="geometry" />
        </mxCell>
        <mxCell id="aUV_jErdy8Et5y5GlB_C-17" value="User Name/Password" style="rounded=0;whiteSpace=wrap;html=1;" vertex="1" parent="1">
          <mxGeometry x="830" y="560" width="120" height="60" as="geometry" />
        </mxCell>
        <mxCell id="aUV_jErdy8Et5y5GlB_C-18" value="Access Key&lt;div&gt;= ID + Key&lt;/div&gt;" style="rounded=0;whiteSpace=wrap;html=1;" vertex="1" parent="1">
          <mxGeometry x="830" y="650" width="120" height="60" as="geometry" />
        </mxCell>
        <mxCell id="aUV_jErdy8Et5y5GlB_C-19" value="Access ID&lt;div&gt;Access Key&lt;div&gt;session Token&lt;/div&gt;&lt;/div&gt;" style="rounded=0;whiteSpace=wrap;html=1;" vertex="1" parent="1">
          <mxGeometry x="830" y="740" width="120" height="60" as="geometry" />
        </mxCell>
        <mxCell id="aUV_jErdy8Et5y5GlB_C-25" style="edgeStyle=orthogonalEdgeStyle;rounded=0;orthogonalLoop=1;jettySize=auto;html=1;" edge="1" parent="1" source="aUV_jErdy8Et5y5GlB_C-23" target="aUV_jErdy8Et5y5GlB_C-24">
          <mxGeometry relative="1" as="geometry" />
        </mxCell>
        <mxCell id="aUV_jErdy8Et5y5GlB_C-23" value="AuthZ" style="rounded=0;whiteSpace=wrap;html=1;" vertex="1" parent="1">
          <mxGeometry x="630" y="860" width="120" height="60" as="geometry" />
        </mxCell>
        <mxCell id="aUV_jErdy8Et5y5GlB_C-27" style="edgeStyle=orthogonalEdgeStyle;rounded=0;orthogonalLoop=1;jettySize=auto;html=1;entryX=0.75;entryY=1;entryDx=0;entryDy=0;" edge="1" parent="1" source="aUV_jErdy8Et5y5GlB_C-24" target="aUV_jErdy8Et5y5GlB_C-2">
          <mxGeometry relative="1" as="geometry" />
        </mxCell>
        <mxCell id="aUV_jErdy8Et5y5GlB_C-28" style="edgeStyle=orthogonalEdgeStyle;rounded=0;orthogonalLoop=1;jettySize=auto;html=1;entryX=1;entryY=0.75;entryDx=0;entryDy=0;" edge="1" parent="1" source="aUV_jErdy8Et5y5GlB_C-24" target="aUV_jErdy8Et5y5GlB_C-3">
          <mxGeometry relative="1" as="geometry" />
        </mxCell>
        <mxCell id="aUV_jErdy8Et5y5GlB_C-24" value="Policies" style="rounded=0;whiteSpace=wrap;html=1;fillColor=#d5e8d4;strokeColor=#82b366;" vertex="1" parent="1">
          <mxGeometry x="360" y="860" width="120" height="60" as="geometry" />
        </mxCell>
        <mxCell id="aUV_jErdy8Et5y5GlB_C-41" style="edgeStyle=orthogonalEdgeStyle;rounded=0;orthogonalLoop=1;jettySize=auto;html=1;entryX=0.5;entryY=1;entryDx=0;entryDy=0;" edge="1" parent="1" source="aUV_jErdy8Et5y5GlB_C-29" target="aUV_jErdy8Et5y5GlB_C-40">
          <mxGeometry relative="1" as="geometry" />
        </mxCell>
        <mxCell id="aUV_jErdy8Et5y5GlB_C-29" value="Effect" style="rounded=0;whiteSpace=wrap;html=1;" vertex="1" parent="1">
          <mxGeometry x="310" y="820" width="90" height="40" as="geometry" />
        </mxCell>
        <mxCell id="aUV_jErdy8Et5y5GlB_C-30" value="Service" style="rounded=0;whiteSpace=wrap;html=1;" vertex="1" parent="1">
          <mxGeometry x="350" y="1020" width="90" height="40" as="geometry" />
        </mxCell>
        <mxCell id="aUV_jErdy8Et5y5GlB_C-35" style="edgeStyle=orthogonalEdgeStyle;rounded=0;orthogonalLoop=1;jettySize=auto;html=1;entryX=0.5;entryY=0;entryDx=0;entryDy=0;" edge="1" parent="1" source="aUV_jErdy8Et5y5GlB_C-31" target="aUV_jErdy8Et5y5GlB_C-30">
          <mxGeometry relative="1" as="geometry" />
        </mxCell>
        <mxCell id="aUV_jErdy8Et5y5GlB_C-37" style="edgeStyle=orthogonalEdgeStyle;rounded=0;orthogonalLoop=1;jettySize=auto;html=1;" edge="1" parent="1" source="aUV_jErdy8Et5y5GlB_C-31" target="aUV_jErdy8Et5y5GlB_C-36">
          <mxGeometry relative="1" as="geometry" />
        </mxCell>
        <mxCell id="aUV_jErdy8Et5y5GlB_C-31" value="Resource" style="rounded=0;whiteSpace=wrap;html=1;" vertex="1" parent="1">
          <mxGeometry x="414" y="920" width="90" height="40" as="geometry" />
        </mxCell>
        <mxCell id="aUV_jErdy8Et5y5GlB_C-32" value="arn:aws:service:region:account-id:[resourcetype:]resource" style="rounded=0;whiteSpace=wrap;html=1;" vertex="1" parent="1">
          <mxGeometry x="330" y="1090" width="230" height="30" as="geometry" />
        </mxCell>
        <mxCell id="aUV_jErdy8Et5y5GlB_C-36" value="Region" style="rounded=0;whiteSpace=wrap;html=1;" vertex="1" parent="1">
          <mxGeometry x="470" y="1020" width="90" height="40" as="geometry" />
        </mxCell>
        <mxCell id="aUV_jErdy8Et5y5GlB_C-44" style="edgeStyle=orthogonalEdgeStyle;rounded=0;orthogonalLoop=1;jettySize=auto;html=1;entryX=1;entryY=0.5;entryDx=0;entryDy=0;" edge="1" parent="1" source="aUV_jErdy8Et5y5GlB_C-38" target="aUV_jErdy8Et5y5GlB_C-43">
          <mxGeometry relative="1" as="geometry" />
        </mxCell>
        <mxCell id="aUV_jErdy8Et5y5GlB_C-38" value="Action" style="rounded=0;whiteSpace=wrap;html=1;" vertex="1" parent="1">
          <mxGeometry x="270" y="860" width="90" height="40" as="geometry" />
        </mxCell>
        <mxCell id="aUV_jErdy8Et5y5GlB_C-46" style="edgeStyle=orthogonalEdgeStyle;rounded=0;orthogonalLoop=1;jettySize=auto;html=1;entryX=1;entryY=0.5;entryDx=0;entryDy=0;" edge="1" parent="1" source="aUV_jErdy8Et5y5GlB_C-39" target="aUV_jErdy8Et5y5GlB_C-45">
          <mxGeometry relative="1" as="geometry" />
        </mxCell>
        <mxCell id="aUV_jErdy8Et5y5GlB_C-39" value="Condition" style="rounded=0;whiteSpace=wrap;html=1;" vertex="1" parent="1">
          <mxGeometry x="270" y="900" width="90" height="40" as="geometry" />
        </mxCell>
        <mxCell id="aUV_jErdy8Et5y5GlB_C-40" value="Allow/&lt;div&gt;Deny&lt;/div&gt;" style="rounded=0;whiteSpace=wrap;html=1;" vertex="1" parent="1">
          <mxGeometry x="315" y="740" width="80" height="40" as="geometry" />
        </mxCell>
        <mxCell id="aUV_jErdy8Et5y5GlB_C-43" value="s3:GetObject&lt;div&gt;s3LListBucket&lt;/div&gt;" style="rounded=0;whiteSpace=wrap;html=1;" vertex="1" parent="1">
          <mxGeometry x="140" y="810" width="80" height="40" as="geometry" />
        </mxCell>
        <mxCell id="aUV_jErdy8Et5y5GlB_C-45" value="&quot;aws:SourceIP&quot;:&lt;div&gt;&quot;192.168.0.1&quot;&lt;/div&gt;" style="rounded=0;whiteSpace=wrap;html=1;" vertex="1" parent="1">
          <mxGeometry x="140" y="900" width="100" height="40" as="geometry" />
        </mxCell>
        <mxCell id="aUV_jErdy8Et5y5GlB_C-48" value="Json Format" style="rounded=0;whiteSpace=wrap;html=1;fillColor=#fff2cc;strokeColor=#d6b656;" vertex="1" parent="1">
          <mxGeometry x="440" y="830" width="80" height="30" as="geometry" />
        </mxCell>
        <mxCell id="aUV_jErdy8Et5y5GlB_C-50" style="edgeStyle=orthogonalEdgeStyle;rounded=0;orthogonalLoop=1;jettySize=auto;html=1;entryX=1;entryY=0.5;entryDx=0;entryDy=0;" edge="1" parent="1" source="aUV_jErdy8Et5y5GlB_C-49" target="aUV_jErdy8Et5y5GlB_C-1">
          <mxGeometry relative="1" as="geometry" />
        </mxCell>
        <mxCell id="aUV_jErdy8Et5y5GlB_C-51" value="Strongly&lt;div&gt;Recommeded&lt;/div&gt;" style="edgeLabel;html=1;align=center;verticalAlign=middle;resizable=0;points=[];" vertex="1" connectable="0" parent="aUV_jErdy8Et5y5GlB_C-50">
          <mxGeometry x="0.1143" y="3" relative="1" as="geometry">
            <mxPoint as="offset" />
          </mxGeometry>
        </mxCell>
        <mxCell id="aUV_jErdy8Et5y5GlB_C-49" value="MFA" style="rounded=0;whiteSpace=wrap;html=1;" vertex="1" parent="1">
          <mxGeometry x="590" y="100" width="120" height="60" as="geometry" />
        </mxCell>
      </root>
    </mxGraphModel>
  </diagram>
  <diagram id="8zw136ys9SA5uTNdF9QP" name="SQS SWF SNS">
    <mxGraphModel dx="1434" dy="772" grid="1" gridSize="10" guides="1" tooltips="1" connect="1" arrows="1" fold="1" page="1" pageScale="1" pageWidth="827" pageHeight="1169" math="0" shadow="0">
      <root>
        <mxCell id="0" />
        <mxCell id="1" parent="0" />
        <mxCell id="iK1igZavHEC8P8y9BA98-1" value="Workflow Domains" style="rounded=0;whiteSpace=wrap;html=1;align=left;verticalAlign=top;" vertex="1" parent="1">
          <mxGeometry x="270" y="240" width="250" height="150" as="geometry" />
        </mxCell>
        <mxCell id="iK1igZavHEC8P8y9BA98-2" value="Workflows" style="rounded=0;whiteSpace=wrap;html=1;" vertex="1" parent="1">
          <mxGeometry x="340" y="290" width="120" height="60" as="geometry" />
        </mxCell>
      </root>
    </mxGraphModel>
  </diagram>
</mxfile>
